<svg id="Capa_1" data-name="Capa 1" xmlns="http://www.w3.org/2000/svg" viewBox="0 0 438 438"><defs><style>.cls-1{fill:#664439;}.cls-2{fill:none;stroke:#664439;stroke-miterlimit:10;stroke-width:8px;}</style></defs><title>Coffee_Shop_Logo_2</title><path class="cls-1" d="M329.46,265.23a28.46,28.46,0,0,1-2.47-4.34q-4.28-9.18-7-16.39a73.15,73.15,0,0,1-3.28-14.4,28.58,28.58,0,0,1,1.62-13.46,32.85,32.85,0,0,1,7.35-12.46,54.31,54.31,0,0,1,16.12-11.86c7.18-3.35,14.37-7.14,19-13.07q3.36-4.29,4.26-11.44a63.74,63.74,0,0,0-1.93-24.75c-.23-.86.07-1.15.91-.85q.27.09.78.81c7.18,10.15,13,23.22,12,35.93s-9.1,22.32-20,28.22q-4.91,2.64-9.85,5.24c-11.57,6.08-16.93,16.14-17.7,28.84a67.7,67.7,0,0,0,.42,12.95q.7,5.4,1.6,10.85a1.81,1.81,0,0,0,1.94,1.5,155.37,155.37,0,0,1,32,4.87,10.12,10.12,0,0,1,4.88,2.8c.24.26.19.36-.16.32-7.35-.88-14.94-2.16-22.28-2.37q-10.68-.32-19.36,0a164.35,164.35,0,0,0-32.56,4.67,102.61,102.61,0,0,0-21.24,7.95,57.8,57.8,0,0,0-17.37,13.3,31.24,31.24,0,0,0-8.56,18.71c-1.25,11.45,7.76,21.48,17.4,26.48,10.63,5.5,22.39,8.31,34.57,9.84a169.14,169.14,0,0,0,21.25,1.23q23.88,0,43.11-7.52a101.92,101.92,0,0,0,17.17-8.92c4.09-2.58,7.33-5.8,10.72-9.11q2.34-2.3,4.83-.44c1.65,1.25,3,3,1.93,5.17-2.34,4.72-7,9.13-11.24,12.23a86.53,86.53,0,0,1-29.18,13.8,131.29,131.29,0,0,1-33.61,4.8q-7.2,0-14.45-.21c-6.55-.19-11.49-.49-14.82-.93Q286.41,362,277.76,360a86.74,86.74,0,0,1-11.28-3.67,68,68,0,0,1-15.84-8.21,56.24,56.24,0,0,1-8.35-8.22,31.68,31.68,0,0,1-7.59-18.56c-.68-8.13,2.84-17.11,7.51-23.53a66.63,66.63,0,0,1,33.1-24.13c10.34-3.55,18.92-6.13,29.29-7.17a185.5,185.5,0,0,1,20-.84c1.58,0,3.09.07,4.53.19Q329.94,265.92,329.46,265.23Z" transform="translate(-107 -95)"/><path class="cls-1" d="M284.46,246.27c-1.49,6.79-.47,13.58.47,20.45.14,1-.14,1.17-.83.37a9,9,0,0,1-1.18-1.77q-2.3-4.63-4.86-11.18c-5.31-13.5-.94-24.7,11.29-31.26,5.16-2.77,10.31-5.62,14-10.06,2.85-3.39,2.85-8.82,2.34-13q-.53-4.35-1.21-8.59a.59.59,0,0,1,.17-.54.53.53,0,0,1,.76,0l0,0a24,24,0,0,1,4.3,7.18c2.08,5.33,3.78,10.26,3.43,15.92A18,18,0,0,1,307,226.72a31.83,31.83,0,0,1-7,4.12C293.48,233.9,286.13,238.74,284.46,246.27Z" transform="translate(-107 -95)"/><path class="cls-1" d="M362.55,294.84a87.6,87.6,0,0,0-25.86-5.67,78,78,0,0,0-14.36.17c-9.46,1-17.79,5.34-26.08,10.15a4.06,4.06,0,0,1-2.27.58.77.77,0,0,1-.74-.81.2.2,0,0,1,0-.07c.67-4.77,5.73-9.58,9.6-11.32A56.16,56.16,0,0,1,323.93,283a130.44,130.44,0,0,1,28.18,2,71.07,71.07,0,0,1,16.65,5.21q12.08,5.49,16.37,16.22a9,9,0,0,1,.61,3.29c.06,9.43-4.31,16-12,21.11a50.16,50.16,0,0,1-21.35,8.07,81.75,81.75,0,0,1-38.2-3.56,36.16,36.16,0,0,1-8.81-4.46c-.48-.33-.43-.43.12-.3,1.05.25,2.11.51,3.18.79a131.78,131.78,0,0,0,16.68,3.14c13.86,1.75,28.65.56,40.71-5.88C373,325,379,318.2,377.94,310,377.05,302.73,369.16,297.48,362.55,294.84Z" transform="translate(-107 -95)"/><path class="cls-1" d="M417.15,383.39a30.47,30.47,0,0,0-7.78,1.14c-.36.1-.45,0-.26-.35a1.05,1.05,0,0,1,.56-.48,68.78,68.78,0,0,0,7.82-3.22c9.12-4.48,16.77-14.2,17.92-24.38,1.56-13.76-15.67-16.47-25-19.6a19.06,19.06,0,0,1-4-1.89,1.48,1.48,0,0,1-.47-2,2,2,0,0,1,.22-.27c5-4.95,12.13-5.64,18.54-2.73s12.17,6.73,15.29,12.74a26.33,26.33,0,0,1,1.94,21.12q-3.67,11.15-13.54,15.7C424.8,380.76,421,383.31,417.15,383.39Z" transform="translate(-107 -95)"/><path class="cls-1" d="M315.24,415.25a55.45,55.45,0,0,0,53.45-20.31,138.71,138.71,0,0,0,11.79-18.06q4.86-8.94,9-16.18a34.66,34.66,0,0,1,4.72-6.4,7.34,7.34,0,0,1,5.68-2.47,1.59,1.59,0,0,1,1.55,1.45,53.43,53.43,0,0,1-2.53,21.9,109,109,0,0,1-6.65,15,73.52,73.52,0,0,1-24.87,26.93,56,56,0,0,1-12.73,6.06,77.25,77.25,0,0,1-39,2.87q-15.66-2.79-26.9-9.38c-19.37-11.35-35.63-29-39.86-51.36a81.72,81.72,0,0,1-1.42-16.39,3.25,3.25,0,0,1,.3-1.3c.24-.51.53-.54.87-.1a6.57,6.57,0,0,1,1.2,2.46,99.64,99.64,0,0,0,12.69,29.48A79.79,79.79,0,0,0,315.24,415.25Z" transform="translate(-107 -95)"/><path class="cls-1" d="M399.48,437.28a116.31,116.31,0,0,0,23.84-13.87,68.78,68.78,0,0,0,15.28-15.56A42.91,42.91,0,0,0,447,381.72q-.07-4.38-.34-8.4-.3-4.51,1.16-.24a72,72,0,0,1,2.51,9.89,34.79,34.79,0,0,1-2.87,22.45q-6.89,13.84-20.81,24.13a127.26,127.26,0,0,1-29.75,16.16A184.68,184.68,0,0,1,351.65,457,245.25,245.25,0,0,1,283,455.69c-21.46-3.56-41.87-10.65-59.37-23.06A66.56,66.56,0,0,1,212.94,423c-7.27-8.07-12.32-17.11-13.23-27.73-1.33-15.25,9.76-29.83,20.84-38.89a.24.24,0,0,1,.36,0l.16.15a.06.06,0,0,1,0,.06,55.51,55.51,0,0,0-11.78,21.89,32.36,32.36,0,0,0,2,22.13,64,64,0,0,0,23.31,27.56A118.3,118.3,0,0,0,259,440.9a172.85,172.85,0,0,0,33.37,9,203.19,203.19,0,0,0,62.76.1A185.17,185.17,0,0,0,399.48,437.28Z" transform="translate(-107 -95)"/><path class="cls-1" d="M218.3,388.68a56.6,56.6,0,0,1,5.9.46l7.68,1.5c.31.07.4.24.27.54-1,2.25-1.88,3.81-4.49,4.5-3.61,1-8.21,1-10.61-2.07a10.61,10.61,0,0,1-2.22-5.1c-.3-2.34,1.72-4.81,3.89-5.62a20.34,20.34,0,0,1,10.07-1.22,24.36,24.36,0,0,1,9.86,3.66,5.45,5.45,0,0,0,2.24.86,6.48,6.48,0,0,1,4.21,2.74,2,2,0,0,0,.63.52l.82.44a.65.65,0,0,1,.37.62c-.06,3.41-3,7.18-5.2,9.78-1.74,2.12-6.8,6.53-9.65,5.31a1.22,1.22,0,0,1-.65-1.6l0,0a8.05,8.05,0,0,1,1.44-2.2q3.6-3.91,7.88-8.49c1.25-1.33,2.8-2,4-3.3.25-.26.19-.37-.16-.33a6.51,6.51,0,0,0-4.16,2.34q-5.24,6-10.61,11.76a.79.79,0,0,1-1.13,0,.83.83,0,0,1-.16-.21,3.82,3.82,0,0,1,0-3.6,65.43,65.43,0,0,1,5.29-9.21,12.2,12.2,0,0,1,4.6-3.51s0,0,0-.07l-.09-.21a.18.18,0,0,0-.27-.08l-4.94,2.52a1,1,0,0,1-.68.08q-3.92-.92-8.26-1.5a13.62,13.62,0,0,0-6,.45C217.91,388.56,217.92,388.64,218.3,388.68Z" transform="translate(-107 -95)"/><path class="cls-1" d="M259.92,408.46A74.83,74.83,0,0,1,257.3,399c-.15-.66.11-1,.78-1.07,1.95-.17,3.88,2.34,4.71,3.86,3,5.46,5.39,10.6,2.93,16.67a.65.65,0,0,1-.85.34.63.63,0,0,1-.31-.27A63,63,0,0,1,259.92,408.46Z" transform="translate(-107 -95)"/><path class="cls-1" d="M261.87,420.45c-4.82-1.35-6.81-5.64-8.65-9.84-1-2.36-2-7-.58-9.55a8.52,8.52,0,0,1,2.23-2.64.3.3,0,0,1,.43.05.35.35,0,0,1,.06.14,18.07,18.07,0,0,0,1.06,4.26q2.79,6.93,5.33,14.22c.29.86.59,1.7.89,2.51a.64.64,0,0,1-.37.83A.68.68,0,0,1,261.87,420.45Z" transform="translate(-107 -95)"/><path class="cls-1" d="M247.58,414.84a39.8,39.8,0,0,0-2.4,4.56,39.1,39.1,0,0,1-3.38,5.4.7.7,0,0,1-1,.19h0a3.65,3.65,0,0,1-1.51-3.33,22.82,22.82,0,0,1,8.34-17.77,8.66,8.66,0,0,1,2.16-1.11.74.74,0,0,1,1,.35l0,.07a7.44,7.44,0,0,1-1.25,7.92A33.58,33.58,0,0,0,247.58,414.84Z" transform="translate(-107 -95)"/><path class="cls-1" d="M243.75,424.74l7.62-13.61c.4-.72.83-.74,1.28,0a22.54,22.54,0,0,1,2.51,5.2,1.24,1.24,0,0,1,0,.66,9.67,9.67,0,0,1-1.09,3c-1.3,1.91-7.39,8.64-10,6.46A1.35,1.35,0,0,1,243.75,424.74Z" transform="translate(-107 -95)"/><text x="-107" y="-95"/><circle class="cls-2" cx="219" cy="219" r="215"/></svg>