<?xml version="1.0" encoding="utf-8"?>
<!-- Generator: Adobe Illustrator 24.0.0, SVG Export Plug-In . SVG Version: 6.00 Build 0)  -->
<svg version="1.1" id="Capa_1" xmlns="http://www.w3.org/2000/svg" xmlns:xlink="http://www.w3.org/1999/xlink" x="0px" y="0px"
	 viewBox="0 0 1024 1024" style="enable-background:new 0 0 1024 1024;" xml:space="preserve">
<style type="text/css">
	.st0{fill:#2A0E00;}
	.st1{fill:#FEFCE7;stroke:#FEFCE7;stroke-width:2;stroke-miterlimit:10;}
	.st2{fill:#FFFFFF;}
	.st3{fill:#FCB67A;}
	.st4{fill:#FEFCE7;}
	.st5{fill:#FFDFB2;}
	.st6{fill:#742705;}
	.st7{fill:#FF81BB;}
	.st8{fill:#DF469C;}
</style>
<path class="st0" d="M928.6,462.9c-0.7-6.6-1.7-13.3-2.9-19.9c-4.1-22.8-9.4-43.7-15.9-62.8c-36.7-108.5-119.3-199.3-222.2-248.6
	c-59.2-28.3-121.8-41.5-187.4-39.5c-42.6,1.3-85.5,10.2-125.7,25.2c-55.2,20.5-104.1,50.9-146.5,91c-5.1,4.8-9.8,9.6-14.2,14.4
	c-24.5,26-44.8,52.8-61,80.4c-31,52.7-49.4,109.7-55.2,171c-0.6,6.8-1.1,13.7-1.3,20.5c-0.9,29.7,0.4,57.2,4,82
	c6.3,43,18.5,84.7,38,123.3c6.3,12.5,12.2,23.2,17.7,32c18.1,29.2,39.5,56.5,64.3,81.6c31.7,32.3,69.2,59.2,112.4,80.7
	c6.3,3.1,12.4,6,18.7,8.6c69,29.1,140.1,39.1,212.8,30c64-8,123.4-30,178.2-66.4c5.7-3.7,11.4-7.8,17.3-12.1
	c41.9-31.6,76.8-68.6,104.6-111.2c33.8-51.6,54.8-108.5,63.4-170.9C932.3,536.1,932.7,499.5,928.6,462.9z"/>
<g id="Layer_1">
	<path class="st1" d="M947.2,489.1c0.8,13.4,0.9,26,0.4,37.8c-1,24.3-3.6,48.7-8.4,72.6c-1.4,6.9-2.7,13-4.1,18.6
		c-1.4,5.7-3,11.6-4.7,17.7c-21,73.8-61.8,141-116.7,194c-20.1,19.4-41.6,36.8-64.6,52.3c-5.5,3.7-11.1,7.3-16.9,10.7
		c-28.7,17-58.9,30.5-90.4,40.6c-35,11.2-70.5,17.9-106.6,20c-29.8,1.7-58.2,0.4-85.3-3.9c-5.3-0.8-10.8-1.7-16.6-2.7
		c-13-2.2-26.1-5.2-39.4-9c-15.4-4.5-29.5-9.2-42.2-14.3c-54.3-21.6-104-54-145.3-95.2c-4.8-4.8-9.4-9.6-13.9-14.4
		c-22.9-24.3-42.5-50.6-58.9-78.7c-3.4-5.9-6.6-11.6-9.6-17.1c-7.4-13.8-13.4-27.5-19.1-41.7c-8.1-20-14.5-40.2-19.1-60.7
		C74.1,565,71,514.2,76.6,463.1c1-8.8,2.5-18.8,4.6-30.1c5.4-29,13.3-56.3,23.6-81.8c2-5,4.2-10,6.6-15c3.1-6.5,5.8-13.2,9.1-19.4
		c9.3-17.9,18.5-33.5,27.6-47c4.6-6.9,10.6-15,17.8-24.5c20.8-27.2,45.3-52.2,70.5-72.9c2.8-2.3,8.1-6.4,16.1-12.5
		c5.5-4.2,11-8.1,16.3-11.7c24.2-16.3,50-30.3,77.6-42.1c31.6-13.5,64.6-23,98.7-28.6c12.3-2,25.3-3.5,39.1-4.3
		c19.9-1.2,42.3-1.2,63.3,0.7c23.6,2.2,45.8,5.9,66.7,11.3c6.2,1.6,16.2,4.5,29.8,8.8c6,1.9,12.2,4.1,18.8,6.8
		c65.9,26.4,122.9,65.8,171,118.1c7.8,8.5,16.9,19.7,27.2,33.7c28.7,38.8,50.6,81.1,65.6,126.9C938.1,414.4,945,451,947.2,489.1z
		 M350.1,897.7c68.3,28.8,138.6,38.7,210.6,29.7c63.3-7.9,122.1-29.7,176.3-65.6c5.6-3.7,11.3-7.7,17.1-12
		c41.5-31.2,76-67.8,103.5-109.9c33.4-51,54.2-107.3,62.7-168.9c4.9-36.1,5.3-72.2,1.2-108.4c-0.7-6.5-1.7-13.1-2.9-19.7
		c-4.1-22.5-9.3-43.2-15.7-62.1c-36.3-107.3-118-197-219.9-245.7c-58.6-28-120.5-41-185.4-39c-42.2,1.3-84.6,10.1-124.4,24.9
		c-54.6,20.3-103,50.3-145,90c-5,4.7-9.7,9.4-14.1,14.1c-24.2,25.7-44.3,52.2-60.4,79.6c-30.7,52.1-48.9,108.4-54.6,169
		c-0.6,6.7-1.1,13.5-1.3,20.3c-0.9,29.4,0.4,56.5,4,81.1c6.2,42.5,18.3,83.7,37.6,121.9c6.2,12.4,12.1,22.9,17.5,31.6
		c17.9,28.9,39.1,55.9,63.6,80.7c31.4,31.9,68.5,58.5,111.2,79.8C337.9,892.3,344,895.1,350.1,897.7z"/>
	<path class="st2" d="M627.1,503.9c-1.1,0.9-3,1-5.5,0.4c-0.4-0.1-0.7-0.1-1.1,0c-4.4,1.3-8.6,2.6-13.2,3.7c-13.3,3-22.6,5-27.9,5.8
		c-36.4,5.8-73.9,6.8-112.6,3c-23.4-2.3-45.5-6.3-66.4-12.2c-1.1-0.3-2.2-0.5-3.3-0.6c-1-0.1-2.1-0.3-3.1-0.5
		c4.2-1.5,8.5-2.8,12.8-3.8c2.7-0.6,9.6-2.9,8.9-6.7c-1-5.5-8.2-4.8-12.5-4.3c-11.7,1.2-22.3,3.5-32,7c-0.2,0.1-0.4,0-0.5-0.2
		l-3.5-8.5c-0.1-0.2,0-0.3,0.2-0.4c13.3-2.8,25.9-4,40-4.8c1.8-0.1,3.6-0.9,5.4-2.5c2.3-2,2.1-5.4-0.4-7.1c-1.5-1.1-3.2-1.7-5-1.9
		c-9.8-0.7-18.6-0.7-26.5,0.1c-5.4,0.5-10.8,1.1-16.2,1.9c-0.4,0.1-0.7-0.2-0.8-0.6l0,0l-1.3-10.8c0-0.4,0.1-0.6,0.5-0.6
		c10.9,0,20.2,0.5,27.9,1.7c6.9,1,12.6,1.8,17.1,2.4c3,0.4,8.2-1.9,7.4-5.7c-0.8-3.8-6-5.9-9.3-6.8c-13.8-3.6-27.8-5.7-42.1-6.1
		c-0.4,0-0.8-0.4-0.7-0.8l0,0c1.6-19.7,10.3-38.2,22.6-54.3c2.1-2.7,4.4-5.3,7.1-7.8c0.1-0.1,0.2-0.2,0.2-0.3c0.2-0.5,0.1-0.8-0.2-1
		c-0.2-0.1-0.4-0.1-0.6-0.1c-7.6,1.9-15,3.6-22.3,5c-0.4,0.1-0.7-0.2-0.8-0.5c-3.9-18.1-4.4-36.3-1.5-54.6c0.1-0.4,0.4-0.8,0.9-0.8
		c11.5-1.1,23.2,0.7,35,5.3c8.1,3.1,16.7,10.2,18.5,19c0.3,1.8-2,4.1-3,5.5c-0.3,0.5-0.2,1.2,0.3,1.6c0.1,0.1,0.3,0.1,0.4,0.2
		c0.7,0.1,1.3,0,1.8-0.4c8.2-6.2,16.7-11.2,25.5-15c18.9-8,38.7-12.1,59.5-12.3c0.4,0,0.8,0.4,0.8,0.8c0,0.1,0,0.1,0,0.2
		c-6.7,34.4,4.9,68.9,30.2,93.3c4.7,4.5,9.6,8.6,14.7,12.3c0.6,0.4,0.9,1,0.9,1.7c0.7,10.6,7.4,19.8,17.7,22.7
		c2,0.6,3.9,0.2,5.9,0.2c0.4,0,0.7,0.2,1,0.4c9.9,8.2,21.9,13.4,35.8,15.5c9.6,1.5,20,3,31.3,4.5c2.8,0.4,5.6,1.2,8.4,1.6
		c1.2,0.2,1.6,0.9,1.2,2l-2,5.2c-0.4,1.1-1.2,1.4-2.3,1.1c-13.3-4.5-26-6.8-38.2-7c-3.6,0-5.6,1.6-6.1,4.9c-0.5,3.6,5.1,5.5,7.8,6.1
		C618.4,500.8,622.7,502.1,627.1,503.9z M463.6,458.4c9.5-9.8,9.1-25.6-0.9-35.1c-9.9-9.6-25.7-9.4-35.2,0.5l0,0
		c-9.5,9.8-9.1,25.6,0.9,35.1C438.4,468.5,454.1,468.2,463.6,458.4L463.6,458.4z M511.1,488.4c6.2,9.4,19.2,10.6,26.9,2.6
		c4.4-4.5,5.9-11.4-1.5-14c-3.2-1.1-5.2,2.2-6.7,4.4c-2.5,3.7-6.4,2.3-8.7-0.6c-1.8-2.3-3-5.1-3.7-8.3c-0.1-0.3,0.1-0.7,0.5-0.8
		c3.7-1.4,6.5-5.1,8.9-8.1c3.8-4.6-0.3-11.1-5.5-11.5c-4.9-0.4-11.6-0.4-20.1-0.1c-6.8,0.3-10.7,6.9-5.9,12.4c2.1,2.4,4.5,4.7,7.4,7
		c2.6,2.1-0.9,7.8-2.2,9.6c-0.8,1-1.8,1.7-3.1,2.2c-6.1,2.3-5.6-4.4-9.2-5.8c-3.2-1.3-6.8,0.5-7.7,3.8c-2.9,9.7,10.1,16.7,18.2,15
		c4.6-1,8.4-3.6,11.4-7.8C510.4,487.9,510.7,487.9,511.1,488.4z"/>
	<path class="st3" d="M754.3,453.1c-17.8-13.3-29.8-22-36.1-26.1c-6-3.9-13.4-8.3-22.1-13.2c-3.7-2.1-11.7-6.7-23.9-13.9
		c5.3-19.4,5.1-39.3,2-59.2c-0.1-0.4-0.1-0.8,0-1c0.1-0.5,0.4-0.6,0.8-0.3c3.3,3,6.5,5.9,9.8,8.8c17,15.4,31.7,33,44.4,52.4
		C739.9,417.1,748.3,434.5,754.3,453.1z"/>
	<path class="st3" d="M351.6,399.5c-3,2.1-5.3,3.5-6.8,4.3c-11,5.4-22.1,11.4-33.1,18c-13.9,8.4-26.5,18.4-38.8,28.5
		c-1.6,1.3-2.7,3.6-5.1,2.9c12.2-38.4,36.5-73.4,65.7-100.7c3.9-3.7,8-7.1,12.1-10.3c0.2-0.2,0.6-0.1,0.8,0.1
		c0.1,0.1,0.1,0.2,0.1,0.3c0,5.8,0.1,11.5,0.2,17.1C346.9,373.6,348.6,386.8,351.6,399.5z"/>
	<path class="st4" d="M187.4,426.1c-0.6-1.7-2-2.8-4-3.5c-5.1-1.7-10.6-3.4-16.4-4.9c-1.4-0.4-2.6-0.9-3.8-1.5
		c-0.4-0.2-0.4-0.4,0-0.6c6.2-2.6,12.8-4.1,19.5-5.6c3-0.7,4.4-2.6,5.4-5.4c2.2-5.8,4.1-11.4,5.5-16.9c0.1-0.2,0.3-0.3,0.5-0.3
		c0.1,0,0.2,0.1,0.2,0.1c0.3,0.4,0.5,0.8,0.7,1.3c2,6.4,4,12.2,6.1,17.5c0.6,1.5,1.8,2.5,3.6,3c5.9,1.6,12.2,3.5,19,5.6
		c1.2,0.4,1.3,0.9,0.3,1.6c-0.7,0.5-1.4,0.8-2.1,0.9c-6.9,1.6-13,3.4-18.1,5.3c-1.6,0.6-2.6,1.7-3.1,3.4c-1.9,6.6-4,13.2-6.4,19.7
		c-0.2,0.6-0.4,0.6-0.6,0C192,439.3,190,432.7,187.4,426.1z"/>
	<path class="st4" d="M841.7,396.7c1.7,5.8,3.6,11.6,5.7,17.3c0.8,2.2,2.4,3.6,4.8,4.3c4.9,1.3,9.4,2.7,13.8,4.5c1,0.4,1,0.8,0,1.1
		c-4.6,1.6-8.9,3-13.2,4.2c-4.2,1.2-5.6,3.5-6.7,7.5c-1.4,5.2-2.9,10-4.5,14.6c-0.2,0.7-0.5,0.7-0.7,0c-0.9-3.4-2-7.1-3.3-11
		c-1.8-5.6-2.2-9.1-7.4-10.8c-4.7-1.6-9.5-3-14.2-4.4c-1.7-0.5-1.7-1-0.1-1.6c4.3-1.5,8.7-2.9,13.2-4.1c2.5-0.7,5.3-1.5,6.2-4.3
		c1.8-5.6,3.7-11.3,5.6-17c0.1-0.2,0.2-0.4,0.4-0.4C841.5,396.5,841.6,396.5,841.7,396.7L841.7,396.7z"/>
	<path class="st5" d="M672.3,400c12.2,7.2,20.2,11.8,23.9,13.9c8.7,4.9,16.1,9.3,22.1,13.2c6.3,4.1,18.3,12.8,36.1,26.1l2.7,9.1
		c0.1,0.5,0,0.7-0.5,0.5c-12.2-3.7-24.7-3.8-36.1,2c-0.3,0.2-0.7,0.1-1.1-0.1c-12-8.8-25.5-15-40.4-18.7c-0.4-0.1-0.6-0.3-0.6-0.7
		c-1.5-12.4-4.5-24.2-8.8-35.6c-0.4-1.1-0.3-2,0.1-3C670.7,404.2,671.6,401.9,672.3,400z"/>
	<path class="st5" d="M351.6,399.5l2,7.7c0.2,0.8,0.1,1.7-0.3,2.4c-5.7,11.2-8.4,23.6-10.3,36.1c-0.1,0.4-0.4,0.8-0.8,0.9
		c-18.5,4.3-36.8,11.9-49.8,25.9c-10.2,11.1-12.6,26.5-11.6,41.2c-3.9,1.8-6.5,3.2-7.9,4.1c-4.4,3.2-8.9,6.3-13.4,9.4
		c-2.3,1.6-1.7,4.9-1.3,7.2c0.1,0.4-0.1,0.7-0.4,0.9c-0.7,0.5-1.1,0.5-1.2-0.1c-1.6-27.9,2-55.2,11-82c2.4,0.7,3.5-1.6,5.1-2.9
		c12.3-10.1,24.9-20.1,38.8-28.5c11-6.6,22-12.6,33.1-18C346.4,403,348.6,401.6,351.6,399.5z"/>
	<circle class="st2" cx="565" cy="428.6" r="5.9"/>
	
		<ellipse transform="matrix(0.3551 -0.9348 0.9348 0.3551 -122.1996 682.0226)" class="st2" cx="433.2" cy="429.6" rx="5.9" ry="5.7"/>
	<circle class="st2" cx="591.2" cy="451.6" r="7.1"/>
	<ellipse transform="matrix(0.9265 -0.3762 0.3762 0.9265 -136.4385 205.517)" class="st2" cx="458" cy="452.1" rx="7.1" ry="6.9"/>
	<circle class="st2" cx="171.7" cy="464.3" r="7.1"/>
	<path class="st2" d="M344.1,474.9c-10.6,2.2-19.3,6.8-26,13.9c-1.3-0.6-2.5-1.7-3.7-3.3c-0.9-1.3-1.1-2.6-0.6-4s1.4-2.7,2.6-3.7
		c7.1-6.2,16.7-9.9,26-12.6c0.3-0.1,0.5,0,0.6,0.4L344.1,474.9z"/>
	<path class="st2" d="M704,489.6c-6.8-7.6-16.1-12.1-25.8-15l0.8-8.8c0-0.3,0.2-0.4,0.5-0.3c8.5,2.8,15.8,5.7,23.4,11.3
		c2.7,2,4.8,4.2,6.3,6.8c0.2,0.4,0.2,0.7,0,1.1C708.1,487,706.4,488.6,704,489.6z"/>
	<path class="st6" d="M344.1,474.9c0.3,1.5,0.7,3.3,1.1,5.3c1.4,7.3,3.4,13.7,6,19.2c0.8,1.7,1.7,3.3,2.7,4.8
		c0.6,0.8,0.4,1.1-0.6,0.8c-7.7-2.2-15.4-4.8-22.9-7.8c-3.2-1.3-7.3-4.1-12.3-8.3C324.8,481.8,333.5,477.1,344.1,474.9z"/>
	<path class="st6" d="M678.3,474.6c9.7,3,19,7.4,25.8,15c-10.8,7-22.2,12.1-33.9,15.5c-1.3,0.4-1.6,0-0.9-1.2
		c0.8-1.3,1.6-2.8,2.3-4.6C674.8,491.6,677,483.3,678.3,474.6z"/>
	<path class="st7" d="M884.5,495.2c-0.1,5.2-1.4,9.8-3.8,13.8c-3.8,6.1-8.9,11.7-15.3,17c-2.2,1.8-5.3,3.9-9.2,6.1
		c-4.7,2.7-9.1,5.4-13.9,7.5c-1.5,0.6-2.9,1.3-4.3,2.1c-6.2-3.1-11.9-7.2-17.2-12.2c-9.9-9.4-18.2-24.2-15-38.1
		c0.7-2.9,2.2-5.5,4.7-7.8c-1.4,4.3-0.2,8,3.8,11.3c0.8,0.7,1.8,0.9,3,0.8c7.4-0.8,10.8-7.7,6.1-13.7c-1.6-2.1-4-2.9-7.3-2.3
		c6-2.5,12-2.1,17.9,1.3c4.9,2.9,8.7,6.6,11.2,11.3c0.1,0.2,0.4,0.3,0.6,0.2l0.1-0.1c7.4-8.6,19.7-13.8,30.2-7.7
		C880.2,487,883,490.5,884.5,495.2z M813.3,511.6c2.2,1.1,5,0.2,6.2-2.2c1.2-2.4,0.4-5.2-1.8-6.3l0,0c-2.2-1.1-5-0.2-6.2,2.2
		C810.3,507.6,811.1,510.4,813.3,511.6L813.3,511.6z"/>
	<path class="st8" d="M704.3,608.5c5.3,0.7,10.5-0.1,15.5-2.6c14.7-7.1,26.9-18.7,35.2-32.3c3.2-5.2,6.1-11,8.9-17.5
		c6.1-14.3,9.9-30.6,6.8-46c-1.9-9.3-6.9-16.9-14.6-22.6c-4.1-3.1-9.2-5.1-15.1-6.1c-1.3-0.2-3.5-0.3-6.7-0.3
		c-2.3,0-4.6-0.2-6.8-0.6c12.9-3.6,24.5-1.7,34.6,5.6c9.7,7,15.8,18,17,29.5c3.2,29.2-5.3,61.3-25.4,83.8
		c-16,17.9-41.6,28.4-65.7,31.1c-0.3,0-0.4-0.1-0.2-0.3C694.2,623.2,699.7,615.9,704.3,608.5z"/>
	<path class="st2" d="M810.5,483.6c1.8-1.8,3.7-3.2,5.7-4c3.2-0.6,5.6,0.2,7.3,2.3c4.7,6,1.3,12.9-6.1,13.7c-1.2,0.1-2.2-0.1-3-0.8
		C810.4,491.6,809.1,487.9,810.5,483.6z"/>
	<path class="st7" d="M727.6,480.6c2.2,0.4,4.4,0.6,6.8,0.6c3.2,0,5.5,0.1,6.7,0.3c6,1,11,3,15.1,6.1c7.6,5.7,12.7,13.3,14.6,22.6
		c3.1,15.4-0.7,31.6-6.8,46c-2.8,6.5-5.8,12.3-8.9,17.5c-8.3,13.6-20.5,25.3-35.2,32.3c-5.1,2.5-10.3,3.3-15.5,2.6
		c3.2-5.2,5.8-10.2,7.8-15c0.3-0.7,0.9-1.3,1.6-1.6c10.9-4.9,19.6-13.2,26.3-24.7c5.7-9.8,9.6-21.4,10.1-32.7
		c0.4-9.5-2.9-18.6-13.3-20.5c-7.9-1.5-12.7,2.4-17.9,8c-1.4,1.5-3.1,1.5-4.9,1.3c0.8-4.8,0.8-9.4,0-14c0.5-1.3,0.8-2.3,0.9-3
		c0.4-5.7,1.4-11.4,3.2-16.8c0.1-0.4,0.4-1,0.9-1.8c0.6-1,0.6-1.7,0-2.1L727.6,480.6z"/>
	<path class="st2" d="M719,485.5c0.6,0.4,0.6,1.2,0,2.1c-0.5,0.8-0.8,1.4-0.9,1.8c-1.8,5.5-2.8,11.1-3.2,16.8c0,0.7-0.3,1.6-0.9,3
		c-4.2,2.6-8,5.1-11.6,7.4c-3.3,2.2-10.3,5.6-21,10.3c-7.6,2.8-15,5.4-22.4,8.1c-3.9,1.4-11.9,3.6-24,6.7
		c-30.5,7.8-62,12.2-92.5,13.5c-25.2,1.1-51,0.8-77.3-0.8c-7.3-0.4-14-1-20.2-1.7c-18.8-2.1-38-5.4-57.6-9.8
		c-5.7-1.3-11.5-2.8-17.6-4.6c-6.2-1.9-12.1-3.7-17.8-5.5c-9.9-3.2-20.6-7.6-31.9-13.4c-8-4-14.7-8.5-20.2-13.5
		c-0.4-7.3,1.4-14.2,5.4-20.7c0.4-0.7,0.6-0.6,0.5,0.2c-0.6,9.8,5.8,17.2,13.4,22.6c8.8,6.2,18.5,11.4,29,15.3
		c19,7.1,37.8,12.6,56.5,16.4c28.3,5.7,56.6,9,84.8,9.8c6.2,0.2,12.9,0.3,20,0.4c37,0.4,73.2-3.2,108.7-10.8
		c8.9-1.9,20.7-5.1,35.5-9.6c14-4.3,27.2-9.7,39.7-16.3c3.1-1.6,6.1-3.4,9.1-5.4c8.1-5.5,13.4-9.4,14.4-19.2
		C717,486.9,717.8,486.2,719,485.5z"/>
	<path class="st7" d="M209.9,525.6c-5.8,5.1-11.3,10-16.7,14.6c-2.5,2.2-8.8,6-18.8,11.5c-13.8-4.1-27.8-11.7-35.2-23.8
		c-4.4-7.2-6.3-16.5-2.4-24.1c4.7-9.2,15.9-11.7,25.1-8.2c4.3,1.7,8.3,4.9,11.5,8.2c0.2,0.2,0.4,0.2,0.6,0l0.1-0.1
		c4.2-8.7,12.1-15.1,21.8-15.4c3-0.1,5.7,0.5,8.2,1.8c7.7,3.9,11.4,10.3,11.1,19C214.8,514.7,213.1,520.2,209.9,525.6z"/>
	<path class="st8" d="M884.5,495.2c4,10.2-0.5,21.1-7.7,28.6c-9.5,10-20.9,16.6-34.3,20c-1,0.3-2.5-0.5-4.5-2.2
		c1.4-0.8,2.8-1.5,4.3-2.1c4.8-2,9.3-4.8,13.9-7.5c3.9-2.3,7-4.3,9.2-6.1c6.4-5.2,11.5-10.9,15.3-17
		C883.2,505.1,884.5,500.5,884.5,495.2z"/>
	
		<ellipse transform="matrix(0.4586 -0.8886 0.8886 0.4586 -9.3232 999.2745)" class="st2" cx="815.5" cy="507.3" rx="4.8" ry="4.5"/>
	<path class="st3" d="M394.1,503.5c1,0.2,2.1,0.4,3.1,0.5c1.1,0.1,2.2,0.3,3.3,0.6c20.9,5.9,43,9.9,66.4,12.2
		c38.7,3.7,76.2,2.7,112.6-3c5.3-0.8,14.5-2.8,27.9-5.8c4.6-1,8.8-2.4,13.2-3.7c0.4-0.1,0.7-0.1,1.1,0c2.6,0.6,4.4,0.5,5.5-0.4
		l16.6,5.8c1.5,0.5,1.5,1.1,0,1.7c-2.2,0.9-4.3,2-6.6,2.8c-24.4,7.9-50.3,13.1-77.7,15.7c-48.3,4.5-97.5,2.6-144.9-7.7
		c-10.1-2.2-20.1-5-30.2-8.5c-2.2-0.8-4.3-1.7-6.3-2.8c-0.3-0.2-0.4-0.5-0.2-0.8c0.1-0.1,0.1-0.2,0.3-0.2
		C383.5,507.1,388.8,505.1,394.1,503.5z"/>
	<path class="st7" d="M299.9,505.9c5.5,5,12.3,9.5,20.2,13.5c11.3,5.7,22,10.2,31.9,13.4c5.7,1.8,11.7,3.7,17.8,5.5
		c6,1.8,11.9,3.4,17.6,4.6c19.6,4.4,38.8,7.7,57.6,9.8c6.2,0.7,13,1.3,20.2,1.7c26.3,1.6,52.1,1.9,77.3,0.8
		c30.5-1.3,62-5.8,92.5-13.5c12.1-3.1,20.1-5.3,24-6.7c7.3-2.6,14.8-5.3,22.4-8.1c-0.3,3.1-1.3,7-3.1,11.6
		c-5.3,13.9-10.8,25.8-16.6,35.8c-10,17.3-20.3,32.1-31,44.3c-20.2,23.2-44.8,42.5-73.3,54.5c-12.6,5.3-26.1,8.4-39.9,10.6
		c-8.4,1.4-16.8,1.3-25.3,1.6c-1,0-1.8,0.9-1.8,2c0,0.1,0,0.3,0.1,0.4c0.4,1.4-0.1,2.4-1.4,3.1c-26.6-1.8-52-8.3-76-19.4
		c-12.3-5.7-23.5-12.4-33.5-20c-10.7-8.1-21.6-17.3-30.6-27.8c-24.8-28.6-42.6-64.3-48.4-101.6C299.8,516.8,299.6,511.4,299.9,505.9
		z M483.4,683.5c0.3,0.1,0.5,0.1,0.8,0.1c0.4,0,0.5-0.1,0.1-0.3c-0.6-0.3-1.2-0.5-1.9-0.7c-9.6-1.9-18.7-4.5-27.3-7.7
		c-7.2-2.7-15.4-6.1-24.6-10.3c-25.3-11.5-46-27.8-61.9-49c-16.1-21.4-24-47.5-29.4-73.8c-1.1-5.5-3.8-9.1-8-10.7
		c-7.6-3-15,0.4-13.7,9.8c0.8,6,2.1,11.7,3.7,17c6.6,21.2,16.5,40.7,29.6,58.4c2.9,4,6,7.7,9.1,11.3c4.1,4.6,7.4,8.1,10.1,10.6
		c21.8,20.3,47.4,33.5,76.8,39.7c9.4,2,18.2,3.4,26.4,4.3c3.1,0.3,6,1.2,9.2,1.1C482.8,683.4,483.1,683.4,483.4,683.5z M370.5,550.5
		c0.4-4.5-3.2-8.6-8-9l0,0c-4.8-0.4-9.1,2.9-9.5,7.4s3.2,8.6,8,9l0,0C365.9,558.3,370.1,555,370.5,550.5z M468,602.8
		c-3.4,21.8,5.8,41.4,26.2,50.2c5.6,2.4,12,3.2,19.2,2.4c0.5-0.1,0.6-0.3,0.2-0.6c-17.6-16.3-9.8-37.7-3.6-56.9
		c2.1-6.4,2.8-12.3,2.2-18.9c-0.4-4.1-3.4-12.3-8.7-11.9c-6.4,0.4-12.2,2.5-17.2,6.2C476,580.8,469.9,590.6,468,602.8z M514.4,568.1
		c3.2,4.4,4.8,9.9,4.6,15.2c-0.4,11.4-5,22.7-7.8,33.9c-3.4,13.9-1.8,26.8,9.1,36.9c0.3,0.3,0.8,0.4,1.2,0.3
		c22.7-5,33.4-29.8,29.3-50.9c-3-15.3-11.7-26.5-26.1-33.7c-3-1.5-6.3-2.3-10-2.3c-0.2,0-0.4,0.2-0.4,0.4
		C514.4,568,514.4,568,514.4,568.1z M396.4,605.9c8.6-7.3,9.3-20.7,1.4-29.9s-21.1-10.7-29.7-3.4s-9.3,20.7-1.4,29.9l0,0
		C374.5,611.7,387.8,613.2,396.4,605.9z M421.6,615.6c1.5-4.7-1.1-9.7-5.8-11.2l0,0c-4.7-1.5-9.8,1-11.3,5.7l0,0
		c-1.5,4.7,1.1,9.7,5.8,11.2l0,0C415,622.8,420.1,620.2,421.6,615.6L421.6,615.6z"/>
	<path class="st8" d="M714,509.2c0.8,4.5,0.9,9.2,0,14c-1.4,18.4-6.2,36.3-14.2,53.7c-18.9,40.7-50.9,72.8-90.9,92.9
		c-36.2,18.1-78.6,24.2-119.9,21.1c1.3-0.7,1.8-1.7,1.4-3.1c-0.3-1,0.3-2,1.3-2.3c0.1,0,0.3-0.1,0.4-0.1c8.5-0.3,16.9-0.3,25.3-1.6
		c13.8-2.2,27.3-5.3,39.9-10.6c28.5-12,53.1-31.4,73.3-54.5c10.7-12.2,21-27,31-44.3c5.7-10,11.3-21.9,16.6-35.8
		c1.8-4.6,2.8-8.4,3.1-11.6c10.8-4.7,17.8-8.1,21-10.3C706,514.3,709.9,511.8,714,509.2z"/>
	<path class="st3" d="M280.9,513.7c1.2,18.3,5,35.7,11.5,52.1c10,25.4,24.2,49,42.6,70.7c3.9,4.6,9.7,10.4,17.4,17.4
		c9,8.2,19.5,16.5,31.8,25c0.3,0.2,0.4,0.4,0.4,0.8l-0.3,6c-2.2-1.4-4.4-2.8-6.5-4.2c-5.1-3.4-9.5-7.7-14.4-11.6
		c-3.9-3.1-7.8-6.7-11.7-10.6c-0.6-0.6-1.6-0.6-2.2,0l0,0c-1.7,1.8-3.3,3.5-5.3,5c-5,3.7-9.9,7.4-14.7,11.2
		c-2.8,2.2-5.7,4.4-8.8,6.6c-13.8-15.1-25.5-31.5-35-49.3c-4.1-7.5-8.2-16.2-12.4-26.2c-9.6-22.7-15-46.5-16.2-71.4
		c0.1,0.6,0.5,0.6,1.2,0.1c0.3-0.2,0.4-0.5,0.4-0.9c-0.4-2.3-0.9-5.6,1.3-7.2c4.5-3.1,8.9-6.2,13.4-9.4
		C274.4,516.9,277,515.5,280.9,513.7z"/>
	<path class="st8" d="M209.9,525.6c-5.6,10.1-13.5,18.4-23.6,25c-2.2,1.4-4.2,2.5-5.9,3.1c-0.3,0.1-0.6,0.1-0.9,0l-5.1-1.9
		c10-5.5,16.3-9.3,18.8-11.5C198.6,535.6,204.1,530.7,209.9,525.6z"/>
	<path class="st2" d="M482.5,683.4c-3.2,0.1-6.1-0.8-9.2-1.1c-8.2-0.9-17-2.3-26.4-4.3c-29.4-6.2-55-19.5-76.8-39.7
		c-2.7-2.5-6.1-6-10.1-10.6c-3.2-3.6-6.2-7.3-9.1-11.3c-13.1-17.7-22.9-37.2-29.6-58.4c-1.7-5.3-2.9-11-3.7-17
		c-1.3-9.4,6.1-12.8,13.7-9.8c4.2,1.7,6.8,5.2,8,10.7c5.4,26.4,13.3,52.4,29.4,73.8c15.9,21.2,36.6,37.6,61.9,49
		c9.2,4.2,17.5,7.6,24.6,10.3c8.6,3.2,17.7,5.8,27.3,7.7c0.7,0.1,1.3,0.4,1.9,0.7c0.4,0.2,0.4,0.3-0.1,0.3c-0.3,0-0.6,0-0.8-0.1
		C483.1,683.4,482.8,683.4,482.5,683.4z"/>
	
		<ellipse transform="matrix(9.063117e-02 -0.9959 0.9959 9.063117e-02 -218.3916 860.1417)" class="st2" cx="361.8" cy="549.7" rx="8.3" ry="8.8"/>
	<path class="st2" d="M494.2,652.9c-20.4-8.8-29.7-28.4-26.2-50.2c1.9-12.1,8-22,18.3-29.5c5-3.7,10.8-5.8,17.2-6.2
		c5.3-0.4,8.3,7.8,8.7,11.9c0.6,6.6-0.1,12.5-2.2,18.9c-6.2,19.2-14,40.6,3.6,56.9c0.4,0.3,0.3,0.5-0.2,0.6
		C506.1,656.1,499.8,655.4,494.2,652.9z"/>
	<path class="st2" d="M519,583.3c0.2-5.3-1.3-10.9-4.6-15.2c-0.1-0.2-0.1-0.4,0.1-0.5c0.1,0,0.1-0.1,0.2-0.1c3.7,0,7,0.8,10,2.3
		c14.5,7.2,23.2,18.4,26.1,33.7c4.1,21.2-6.6,45.9-29.3,50.9c-0.4,0.1-0.9,0-1.2-0.3c-10.9-10.1-12.5-23-9.1-36.9
		C514,606,518.6,594.7,519,583.3z"/>
	
		<ellipse transform="matrix(0.7615 -0.6481 0.6481 0.7615 -290.7011 388.2338)" class="st2" cx="382.2" cy="589.2" rx="20.5" ry="21.8"/>
	
		<ellipse transform="matrix(0.9212 -0.3891 0.3891 0.9212 -165.5788 372.8929)" class="st2" cx="837.8" cy="595.2" rx="8.5" ry="8.6"/>
	<circle class="st2" cx="182.4" cy="595.2" r="8.5"/>
	<ellipse transform="matrix(0.309 -0.9511 0.9511 0.309 -297.3583 816.293)" class="st2" cx="413.1" cy="612.8" rx="8.9" ry="9"/>
	<path class="st7" d="M820.3,640.8c7.3,2.8,14.4,5.8,20.6,10.4c2.6,1.9,4.4,4.3,5.5,7.1c2.8,7.2-0.5,14.8-8.7,15.9
		c-5.5,0.7-10.6-0.5-15.3-3.8c-3.5-2.4-7-4.8-10.6-7.3c-8-5.6-17.4-10.7-28.2-15.4c-6-2.6-5.5-11.4,1.2-12.6
		c2.4-0.4,4.9-0.6,7.5-0.4C801.6,635.2,810.9,637.3,820.3,640.8z M823.1,646.7c-5.4-3-11.9-5.7-17.8-7.1c-2.1-0.5-5.2-0.4-6,2.1
		c-0.6,2,0.3,3.7,2.1,4.5c6,2.6,11.9,5,17.9,7.4C824.3,655.6,827.9,649.3,823.1,646.7z"/>
	<path class="st7" d="M198.7,669.2c-7.9,6.1-23.9,8.5-26.3-4.5c-1.4-7.6,2.9-12.3,8.9-15.9c4.2-2.5,8.6-4.8,13.5-6.8
		c10.1-4.3,20.9-6.7,32.4-7.2c5.1-0.2,10.5,0.2,12,6.1c0.7,3-0.4,5.2-3.3,6.5C222.5,653.3,210,660.3,198.7,669.2z M217.3,639.4
		c-2.6-1.2-10.2,1.6-12.9,2.8c-4.2,1.8-8.7,3-12.1,6.1c-0.7,0.7-0.9,1.7-0.5,2.5c1.5,3,3.7,3.9,6.8,2.7c4.4-1.8,8.5-3.4,12.5-4.9
		c3.4-1.3,9.1-3.4,6.8-8.4C217.9,639.8,217.6,639.6,217.3,639.4z"/>
	<path class="st3" d="M702.7,680.6c-3.2-1.5-6.1-3.2-8.8-5.3c-7.1-5.5-14.5-11.2-22.2-17c-0.6-0.5-1.5-0.4-2,0.2
		c-1.2,1.4-2.6,2.8-4.2,4c-10.8,8.4-21.9,16.8-33.3,25l-0.3-7.9c0-0.4,0.1-0.7,0.5-0.9c10.5-7,20.3-13.9,30.6-22.1
		c1.7-1.3,3.2-2.7,4.5-4c0.5-0.5,1.1-0.8,1.8-0.8c11.3-0.1,22.6-1.6,34-4.4c10.2-2.5,20.1-5.7,29.8-9.7c0.4-0.2,0.5-0.1,0.3,0.3
		c-2.8,5.5-5.9,10.6-9.3,15.4C717.2,663,710.1,672.1,702.7,680.6z"/>
	<path class="st2" d="M217.3,639.4c0.3,0.1,0.6,0.4,0.7,0.7c2.3,5-3.5,7.1-6.8,8.4c-3.9,1.5-8.1,3.2-12.5,4.9
		c-3.1,1.2-5.4,0.4-6.8-2.7c-0.4-0.9-0.2-1.9,0.5-2.5c3.3-3.1,7.9-4.3,12.1-6.1C207.2,641,214.7,638.3,217.3,639.4z"/>
	<path class="st2" d="M805.4,639.6c5.9,1.4,12.3,4.1,17.8,7.1c4.8,2.7,1.2,8.9-3.7,7c-5.9-2.3-11.9-4.8-17.9-7.4
		c-1.9-0.8-2.7-2.6-2.1-4.5C800.2,639.2,803.3,639.1,805.4,639.6z"/>
	<path class="st5" d="M702.7,680.6c-9.6,10.7-20.5,20.5-32.9,29.5c-25.6,18.6-53.2,31.8-82.8,39.6c-38.7,10.2-77.4,12.6-116.2,7.2
		c-18.1-2.5-34.3-6.1-48.8-10.7c-30.1-9.6-57.2-24.5-81.5-44.7c-5-4.2-11.7-10.6-20.1-19.4c3-2.2,5.9-4.4,8.8-6.6
		c4.9-3.8,9.8-7.5,14.7-11.2c2-1.5,3.6-3.2,5.3-5c0.6-0.6,1.6-0.7,2.2-0.1l0,0c3.9,3.9,7.8,7.4,11.7,10.6c4.9,3.9,9.3,8.2,14.4,11.6
		c2.2,1.4,4.3,2.8,6.5,4.2c0.9,4.3,2.8,7.9,5.7,11c0.1,0.2,0.1,0.4,0,0.6c-0.1,0-0.1,0.1-0.2,0.1c-2.8,0.5-5.3,1.5-7.3,2.7
		c-5.5,3.4-2,9.1,2.3,11.4c11,6,24,9.5,36.8,12.4c12.4,2.8,24.2,5,35.2,6.5c51.3,6.8,102.8,3.9,152.5-9.2c6.4-1.7,12.9-3.9,19.3-6.6
		c3.1-1.3,5.6-2.8,7.6-4.4c3.9-3.1,3.2-7.4-0.8-9.9c-2.8-1.7-5.8-2.7-9-3c-0.5,0-0.5-0.2-0.2-0.6c2.9-2.7,4.9-5.8,6.1-9.2
		c11.4-8.2,22.5-16.6,33.3-25c1.6-1.3,3-2.6,4.2-4c0.5-0.6,1.4-0.7,2-0.2c7.7,5.8,15,11.5,22.2,17
		C696.6,677.3,699.5,679.1,702.7,680.6z"/>
	<path class="st7" d="M228.1,703.1c7.2-6.5,14.5-12.6,22.6-17.7c2.6-1.6,5.1-2.9,7.6-4c4.9-2.2,12.1-1.5,14.3,4
		c1.3,3.1,0.7,5.8-1.8,8.1c-3.8,3.6-7.9,6.7-11.4,10.6c-5,5.7-9.9,12-14.7,18.8c-4.8,6.9-10.9,9.4-18.3,7.7
		c-9.2-2.2-9.6-13.6-5.1-20C223.1,708.1,225.4,705.6,228.1,703.1z M236.7,703.4l2.8,3.5c0.7,0.9,2,1,2.8,0.3l11.5-9.4
		c2.7-2.2,3.9-5.3,2.6-6.8l0,0l-0.8-0.9c-1.3-1.5-4.5-1-7.2,1.2l0,0l-11.5,9.4C236.2,701.3,236,702.5,236.7,703.4z"/>
	<path class="st7" d="M783.3,730.4c-2.9-1.1-5.7-3.7-8.7-7.7c-8.5-11.7-17-21.3-25.5-28.8c-6.8-6-0.7-15.1,7.3-13.5
		c6,1.2,12,3.9,17.7,8.1c5.7,4.2,11.7,9.4,18,15.6c5.2,5.2,9.6,10.9,8.2,18.6C799,730.5,789.8,733,783.3,730.4z M780.8,704.9
		c1.5-1.7,1.3-4.2-0.4-5.7l0,0l-11.4-9.9c-1.7-1.5-4.2-1.3-5.7,0.4l0,0l-0.2,0.2c-1.5,1.7-1.3,4.2,0.4,5.7l0,0l11.4,9.9
		c1.7,1.5,4.2,1.3,5.7-0.4l0,0L780.8,704.9z"/>
	<path class="st2" d="M768.9,689.3l11.4,9.9c1.7,1.5,1.9,4,0.4,5.7l-0.2,0.2c-1.5,1.7-4,1.9-5.7,0.4l-11.4-9.9
		c-1.7-1.5-1.9-4-0.4-5.7l0.2-0.2C764.7,688,767.2,687.9,768.9,689.3z"/>
	<path class="st2" d="M236.7,703.4c-0.7-0.9-0.6-2.1,0.3-2.8l11.5-9.4c2.7-2.2,5.9-2.8,7.2-1.2l0,0l0.8,0.9c1.3,1.5,0.1,4.6-2.6,6.8
		l0,0l-11.5,9.4c-0.9,0.7-2.1,0.6-2.8-0.3L236.7,703.4z"/>
	<path class="st7" d="M410.1,692c6.6,2.6,13.3,5.4,19.6,7.2c38.4,11,78.5,13.1,118.6,8.1c19.3-2.4,38.9-7.4,59-15
		c0.6-0.2,0.9,0,0.9,0.6v6.1c0,0.6-0.3,1-0.8,1.2c-2.6,1-4.9,1.8-6.9,2.4c-20.9,5.9-40.6,9.6-58.9,11.1c-11.8,1-25.7,1.3-41.9,1.1
		c-31.1-0.5-60.8-5.6-89.2-15.3c-0.4-0.1-0.7-0.5-0.8-1l-0.5-5.9C409.2,691.9,409.5,691.7,410.1,692z"/>
	<path class="st2" d="M332,761.9c0.1,0.2,0.3,0.2,0.5,0.2c6.2-3.4,13.1-7.4,20.8-11.9c7.5-4.4,12.7-7.8,20.4-3.1
		c4.2,2.6,6.4,6,6.7,10.3c0.5,7.9-4.8,12.2-10.9,15.8c-8.4,4.9-16.1,9.2-23,12.8c-0.6,0.3-0.9,1-0.8,1.6c2,9.3,3.8,18.6,6.4,27.7
		c2.5,8.9,6.4,20.3-4.1,25.7c-6.5,3.4-14.4,1-18.4-5c-1.8-2.7-3-5.9-3.8-9.5c-2-10-4.1-19.9-6.3-29.5c-0.3-1.3-0.5-2.5-0.6-3.8
		c-0.1-1.7-0.6-1.8-1.3-0.3c-1.5,3.1-3,6.3-4.5,9.8c-3.5,8.1-6.6,14.6-16.5,13.7c-7.9-0.7-13.9-8.5-12.9-16.3c0.3-2.1,1-4.5,2.2-7.1
		c8.9-19.8,17.4-38.4,25.4-55.7c3-6.5,6.4-11.9,14.1-12.9c8.5-1,17.4,7.3,15.4,16c-1,4.5-3.5,8.3-5.3,12.5c-1.2,2.8-2.4,5.6-3.7,8.3
		C332,761.7,332,761.8,332,761.9z"/>
	<path class="st2" d="M642.3,779.9c0-7.4,0.1-14.6,0.2-21.6c0.1-6.6,3.2-10.9,9.1-12.7c4.1-1.3,8.1-0.8,11.8,1.5
		c6.9,4.2,6.6,10.6,6.3,17.7c-0.6,12.5-1.1,24.3-1.6,35.6c-0.1,2.3,0.4,4.7,1.4,7.1c3.6,8.5,6.8,16.3,9.8,23.3
		c2.2,5.3,1.9,10-0.8,14.3c-3.3,5.2-10.4,7.3-16.2,5.3c-3.7-1.3-6.5-3.9-8.3-7.7c-4.9-10.2-9.1-19.7-12.8-28.7
		c-0.3-0.7-0.7-1.2-1.3-1.7c-1.7-1.3-3.3-2.5-4.9-3.6c-9.8-6.4-18.8-12.4-27-18.1c-3.4-2.4-6.8-6-7.2-10.1
		c-0.9-9.3,6.9-16.1,15.9-15.2c2.5,0.3,5.4,1.5,8.5,3.7c5.5,3.8,10.9,7.5,16.4,11.3c0.2,0.2,0.5,0.1,0.7-0.1
		C642.2,780.1,642.3,780,642.3,779.9z"/>
	<circle class="st7" cx="712.5" cy="759.1" r="11"/>
	<path class="st2" d="M409.5,766.1l0.7,0.2c7.4,2.4,11.4,10.3,9,17.7l-22.4,68.7c-2.4,7.4-10.3,11.4-17.7,9l-0.7-0.2
		c-7.4-2.4-11.4-10.3-9-17.7l22.4-68.7C394.2,767.7,402.1,763.7,409.5,766.1z"/>
	<path class="st2" d="M546.9,809.1c-0.6-0.1-1.2-0.2-1.9-0.1c-3.5,0.5-7.1,1-10.8,1.4c-18.4,2-22.8-24.7-2.9-27.8
		c16.2-2.5,31-5.1,44.3-7.8c4.3-0.9,9.6-1.6,13.5,0.2c6.2,2.9,8.9,8.1,7.9,15.7c-0.6,4.6-3.2,7.8-7.9,9.5c-3.8,1.3-7.4,2.2-10.7,2.6
		c-1,0.1-1.4,0.7-1.2,1.6c3.7,18.6,7.3,36.9,11.1,54.8c1,4.6,1.1,10.1-1.7,14c-6.6,9.4-20.5,7.4-24.9-3.3c-1-2.4-1.9-5.2-2.6-8.2
		c-3.9-17.2-7.8-34.6-11.8-52.1C547.4,809.4,547.2,809.1,546.9,809.1z"/>
	<path class="st2" d="M452.2,804.6c-3.6-0.7-7.3-1.4-11.1-2.2c-2.5-0.5-4.8-1.4-7-2.7c-4.4-2.6-6.4-8.7-5.5-13.6
		c1.6-8.9,9.5-11.7,17.6-10.5c6.2,0.9,12.3,1.8,18.4,2.8c9.4,1.5,18.4,2.5,27.9,3.7c4.3,0.5,7.3,1.4,9.1,2.6
		c6.9,4.5,8.6,12.9,4.6,19.9c-2.4,4.2-6.6,6.2-12.6,5.9c-3.2-0.1-6.5-0.4-9.7-0.6c-0.4,0-0.7,0.2-0.8,0.6
		c-2.2,17.4-4.8,35.6-7.9,54.4c-1.2,7.2-4.2,13.9-12.3,14.9c-11.2,1.4-18.8-7.7-17.3-18.5c2.7-19.5,5.3-37.8,7.7-55
		C453.5,805.5,453,804.7,452.2,804.6z"/>
	<path class="st3" d="M634.5,311.2c-12.3-7.2-25.6-13.9-39.2-18.6c-48.4-16.7-98-18.5-148.8-5.5c-19.4,5-38.1,12.7-56.4,23.3
		c-0.8,0.5-0.7,0.8,0.2,0.9c19.2,2.6,37.1,7.9,53.7,15.9c0.4,0.2,0.9,0.2,1.4,0c9-4,18.9-6.9,29.8-8.9c14.5-2.6,29.3-3.5,44.1-2.7
		c9.5,0.6,18.1,1.4,27,4.1c0.6,0.2,1.1,0.1,1.5-0.3c0.2-0.2,0.4-0.4,0.7-0.6c2.6,0.5,5.2,1,7.9,1.6c10.7,2.4,20.1,5.4,27.9,8.5
		c0.1,0,0.2,0.1,0.3,0.1c0.1-0.1,0.2-0.1,0.3-0.2c3-1.9,5.6-3.5,7.7-4.6c2.3-1.2,4.2-2.4,6.9-3.4V320c0.4,0.2,0.7,0.2,1,0.1
		c10.8-4.2,22.1-6.9,33.8-8.2C635.1,311.8,635.2,311.6,634.5,311.2z"/>
	<path class="st2" d="M485.2,177.7c-1,0-1.4,0.6-1.3,1.5l1.2,11.4c0,0.4,0.4,0.6,0.7,0.6c9.1-0.8,22.5-3,26,8.8
		c2.3,7.9-2.1,15.1-10.6,16c-4.4,0.4-8.8,0.8-13.2,1c-0.5,0-0.8,0.4-0.8,0.9l0,0c0.5,6.6,1.1,13.9,1.8,21.7
		c0.7,6.9-1.2,11.7-5.7,14.4c-7.3,4.4-18.7,2.6-22.7-5.6c-1.1-2.2-1.8-5.7-2.3-10.4c-2.7-29.4-4.5-53.1-5.4-70.8
		c-0.6-11.5,7.3-15.8,17.4-16.6c11.2-1,21.8-1.7,31.9-2.1c5.7-0.3,11.3-0.3,16.8,0c9.5,0.4,16.2,7.9,14.2,17.4
		c-1.8,8.4-8.2,10.3-15.8,10.5C506.6,176.6,495.8,177.1,485.2,177.7z"/>
	<path class="st2" d="M580,224.8c-0.3-0.1-0.5,0.1-0.6,0.4l0,0c-1.3,6.3-2.7,12.9-4.2,20c-0.5,2.4-1.2,5.5-2.3,7.5
		c-3.4,5.8-8.6,7.7-15.6,5.9c-9.8-2.6-13.7-9-11.8-19.4c4.4-23.3,9.5-47,15.4-71.2c0.6-2.5,1.6-4.7,3-6.7c5.5-8,14.4-6.3,22.8-4.3
		c16,3.8,29.6,7.8,40.9,11.8c9.3,3.3,13.8,12.3,8.7,21.4c-3.4,6.2-10.1,7.1-16.4,5.2c-9.8-3-20-5.9-30.7-8.6
		c-0.9-0.2-1.5,0.1-1.7,1.1l-2.1,10.1c-0.1,0.4,0.2,0.9,0.6,1c4.9,1.2,9.4,2.6,13.7,4.2c3.1,1.1,5.5,3,7.3,5.5
		c3.7,5.1,2.9,12.7-1.8,16.9c-3.3,2.8-7.5,3.6-12.7,2.2C588.7,226.8,584.5,225.8,580,224.8z"/>
	<path class="st2" d="M682.4,224.5c-0.2-0.1-0.5,0-0.7,0.2c-2.2,3.2-4.1,6.5-5.8,10.1c-0.2,0.4,0,0.9,0.4,1.1
		c5.2,2.7,11.9,6.4,14.9,11.2c1.4,2.2,1.2,5.8,0.4,8.3c-2.9,8.5-11.3,9.7-18.7,5.9c-2.9-1.5-5.6-3.1-8.3-4.7
		c-0.8-0.5-1.5-0.4-2.1,0.4c-2,2.6-3.6,5.2-4.7,7.9c-0.2,0.4,0,0.8,0.3,1.1c5.6,4.2,11.8,8.4,18.4,12.5c2.2,1.4,4.1,3,5.7,5
		c5,6.3,1.9,16.8-5.4,19.8c-5.3,2.2-11,0.1-15.8-2.8c-8.8-5.3-18.2-11.4-28.3-18.1c-2.8-1.9-5.7-3.9-7.6-6.8c-4-6.1-2.6-12.1,1-18.3
		c11.4-19.6,22.5-38.3,33.1-56.2c4.7-8,10.5-13.2,20.5-10.2c2.7,0.8,5.8,2.3,9.3,4.4c10.3,6.2,20,12.6,29.2,19.3
		c7.4,5.4,11.4,12.7,6,20.9c-2.8,4.2-8.1,6.2-13.1,4.8c-3.2-0.9-6.6-2.7-9.4-4.4c-6-3.7-11.8-7.1-17.4-10.2
		C683.8,225.1,683.1,224.8,682.4,224.5z"/>
	<path class="st2" d="M423.7,257.8c-16.6,21.5-47.9,25.2-69.9,8.3l0,0c-22-17-26.3-48.2-9.7-69.7l0,0c16.6-21.5,47.9-25.2,69.9-8.3
		l0,0C436,205,440.3,236.2,423.7,257.8L423.7,257.8z M393.7,244.2c9.3-5.3,12.5-17.4,7.1-26.9l0,0c-5.4-9.5-17.4-12.9-26.8-7.6
		s-12.5,17.4-7.1,26.9l0,0C372.4,246.1,384.4,249.5,393.7,244.2z"/>
	<path class="st2" d="M763.2,289.3c-2.7,2-5.4,4.4-8,7c-0.5,0.5-0.5,1.4,0,1.9c5.4,5.4,13.6,13.1,8.4,21.6c-2,3.2-5,4.9-9.2,5
		c-7.2,0.2-11.3-6.3-15.3-11.3c-0.3-0.4-1-0.5-1.4-0.2l-7.2,5.7c-0.4,0.3-0.5,0.9-0.2,1.3c4.6,6.2,9.3,12.2,14.1,18.1
		c2.9,3.5,4,7.4,3.3,11.5c-1.3,8.4-10.6,12-17.8,8.8c-2.2-1-4.6-2.9-7.1-5.6c-7.4-8.1-14.5-16.4-21.3-24.9
		c-4.4-5.5-7.4-11.8-4.2-18.7c1.3-2.7,3.4-5.4,6.4-8.1c14.9-13.5,29.9-27,44.8-40.4c6.3-5.7,13-9.6,21.1-5.4
		c2.9,1.5,5.6,3.7,8.1,6.7c6.7,7.9,14.2,17.1,22.6,27.7c3.2,4,6.1,8.7,4.7,13.9c-1.3,4.7-4.2,7.7-8.7,9.2c-7.2,2.3-12.7-1.9-17.2-7
		c-4.7-5.4-9.3-10.9-14-16.5C764.6,288.9,763.9,288.8,763.2,289.3z"/>
	<path class="st2" d="M277.7,304.1c12.2,7.2,28.2-0.8,33.7-12.8c1.2-2.6,2.4-4.9,3.8-6.9c6.7-9.8,18.9-7.6,24,2.3
		c3.8,7.3,1,15.7-3.1,22.5c-7.4,12.4-20.8,22.3-35,25.9c-9.9,2.5-20.2,1.8-31-1.9c-17.4-6-30-22.3-33.1-40.2
		c-5.6-32,22-56.5,51.7-58.4c2.1-0.1,4.5,0.1,7.3,0.7c11.1,2.4,15.3,14.9,7.2,23.3c-3.5,3.7-9.6,3.6-14.2,4.6
		c-13.1,2.9-26.5,14.1-21.5,28.7C269.3,297.1,272.7,301.1,277.7,304.1z"/>
</g>
<g id="Layer_2">
</g>
<g id="Layer_3">
</g>
</svg>
