<?xml version="1.0" encoding="utf-8"?>
<!-- Generator: Adobe Illustrator 24.0.0, SVG Export Plug-In . SVG Version: 6.00 Build 0)  -->
<svg version="1.1" id="Layer_1" xmlns="http://www.w3.org/2000/svg" xmlns:xlink="http://www.w3.org/1999/xlink" x="0px" y="0px"
	 viewBox="0 0 602.9 582.4" style="enable-background:new 0 0 602.9 582.4;" xml:space="preserve">
<style type="text/css">
	.st0{fill:#FDFCE9;}
	.st1{fill:#2A0E00;}
	.st2{fill:#FFFFFF;}
	.st3{fill:#FBB67A;}
	.st4{fill:#FFDFB2;}
	.st5{fill:#742A15;}
	.st6{fill:#DE499A;}
	.st7{fill:#F282B4;}
</style>
<title>Kitty_Coffee_iCON</title>
<ellipse class="st0" cx="301.5" cy="291.2" rx="301.5" ry="291.2"/>
<ellipse class="st1" cx="301.3" cy="292.8" rx="276.5" ry="267"/>
<g id="Layer_1-2">
	<path class="st2" d="M415.7,275.8c-1.1,0.9-3,1-5.5,0.4c-0.4-0.1-0.7-0.1-1.1,0c-4.4,1.3-8.6,2.6-13.2,3.7c-13.3,3-22.6,5-27.9,5.8
		c-37.2,5.8-75.1,6.8-112.6,3c-22.5-2.1-44.7-6.2-66.4-12.2c-1.1-0.3-2.2-0.5-3.3-0.6c-1-0.1-2.1-0.3-3.1-0.5
		c4.2-1.5,8.5-2.8,12.8-3.8c2.7-0.6,9.6-2.9,8.9-6.7c-1-5.5-8.2-4.8-12.5-4.3c-10.9,1-21.7,3.4-32,7c-0.2,0.1-0.4,0-0.5-0.2
		c0,0,0,0,0,0l-3.5-8.5c-0.1-0.2,0-0.3,0.2-0.4c13.3-2.8,25.9-4,40-4.8c2-0.2,3.9-1.1,5.4-2.5c1.9-1.5,2.1-4.3,0.6-6.2
		c-0.3-0.3-0.6-0.6-1-0.9c-1.5-1.1-3.2-1.7-5-1.9c-8.8-0.7-17.7-0.7-26.5,0.1c-5.4,0.5-10.8,1.1-16.2,1.9c-0.4,0.1-0.7-0.2-0.8-0.6
		l0,0l-1.3-10.8c0-0.4,0.1-0.6,0.5-0.6c9.3-0.1,18.7,0.4,27.9,1.7c6.9,1,12.6,1.8,17.1,2.4c3,0.4,8.2-1.9,7.4-5.7
		c-0.8-3.8-6-5.9-9.3-6.8c-13.8-3.6-27.9-5.7-42.1-6.1c-0.4,0-0.7-0.3-0.7-0.7c0,0,0-0.1,0-0.1l0,0c1.6-19.7,10.3-38.2,22.6-54.3
		c2.1-2.8,4.5-5.4,7.1-7.8c0.1-0.1,0.2-0.2,0.2-0.3c0.2-0.5,0.1-0.8-0.2-1c-0.2-0.1-0.4-0.1-0.6-0.1c-7.6,1.9-15,3.6-22.3,5
		c-0.4,0.1-0.7-0.1-0.8-0.5c-3.9-17.9-4.4-36.5-1.5-54.6c0.1-0.4,0.5-0.8,0.9-0.8c11.9-1,23.9,0.8,35,5.3c8.1,3.1,16.7,10.2,18.5,19
		c0.3,1.8-2,4.1-3,5.5c-0.3,0.5-0.2,1.2,0.3,1.6c0.1,0.1,0.3,0.1,0.4,0.2c0.6,0.1,1.3,0,1.8-0.4c7.9-6,16.4-11,25.5-15
		c18.8-8,39.1-12.2,59.5-12.3c0.4,0,0.8,0.4,0.8,0.8v0.2c-6.7,34.4,4.9,68.9,30.2,93.3c4.6,4.4,9.5,8.6,14.7,12.3
		c0.6,0.4,0.9,1,0.9,1.7c0.7,10.6,7.4,19.8,17.7,22.7c2,0.6,3.9,0.2,5.9,0.2c0.4,0,0.7,0.2,1,0.4c9.9,8.2,21.9,13.4,35.8,15.5
		c9.6,1.5,20,3,31.3,4.5c2.8,0.4,5.6,1.2,8.4,1.6c1.2,0.2,1.6,0.9,1.2,2l-2,5.2c-0.2,0.9-1.2,1.4-2.1,1.2c-0.1,0-0.2-0.1-0.2-0.1
		c-12.3-4.3-25.2-6.7-38.2-7c-3.6,0-5.6,1.6-6.1,4.9c-0.5,3.6,5.1,5.5,7.8,6.1C407,272.8,411.5,274.1,415.7,275.8z M252.2,230.3
		c9.6-10,9.2-25.8-0.8-35.4c-10-9.6-25.8-9.2-35.3,0.8l0,0c-9.6,10-9.2,25.8,0.8,35.4C226.8,240.6,242.7,240.3,252.2,230.3
		L252.2,230.3z M299.7,260.3c5.1,8,15.8,10.3,23.8,5.2c1.1-0.7,2.2-1.6,3.1-2.6c4.4-4.5,5.9-11.4-1.5-14c-3.2-1.1-5.2,2.2-6.7,4.4
		c-2.5,3.7-6.4,2.3-8.7-0.6c-1.8-2.5-3.1-5.3-3.7-8.3c-0.1-0.4,0.1-0.7,0.5-0.8c0,0,0,0,0,0c3.7-1.4,6.5-5.1,8.9-8.1
		c3.8-4.6-0.3-11.1-5.5-11.5c-6.7-0.4-13.4-0.4-20.1-0.1c-6.8,0.3-10.7,6.9-5.9,12.4c2.2,2.6,4.7,4.9,7.4,7c2.6,2.1-0.9,7.8-2.2,9.6
		c-0.8,1-1.9,1.8-3.1,2.2c-6.1,2.3-5.6-4.4-9.2-5.8c-2.9-1.2-6.3,0.2-7.5,3.2c-0.1,0.2-0.2,0.4-0.2,0.6c-2.9,9.7,10.1,16.7,18.2,15
		c4.7-1,8.7-3.8,11.4-7.8C299,259.8,299.3,259.8,299.7,260.3L299.7,260.3z"/>
	<path class="st3" d="M542.9,225c-17.8-13.3-29.8-22-36.1-26.1c-6-3.9-13.4-8.3-22.1-13.2c-3.7-2.1-11.7-6.7-23.9-13.9
		c5.3-19.4,5.1-39.3,2-59.2c-0.1-0.3-0.1-0.7,0-1c0.1-0.5,0.4-0.6,0.8-0.3c3.3,3,6.5,5.9,9.8,8.8c17,15.5,31.9,33.1,44.4,52.4
		C528.5,188.9,536.9,206.5,542.9,225z"/>
	<path class="st3" d="M140.2,171.4c-2.2,1.6-4.5,3-6.8,4.3c-11,5.4-22.1,11.4-33.1,18c-13.9,8.4-26.5,18.4-38.8,28.5
		c-1.6,1.3-2.7,3.6-5.1,2.9c12.2-38.4,36.5-73.4,65.7-100.7c3.9-3.7,8-7.1,12.1-10.3c0.3-0.2,0.6-0.1,0.8,0.1
		c0.1,0.1,0.1,0.2,0.1,0.3c0,5.8,0.1,11.5,0.2,17.1C135.5,145,137.1,158.4,140.2,171.4z"/>
	<path class="st4" d="M460.9,171.9c12.2,7.2,20.2,11.8,23.9,13.9c8.7,4.9,16.1,9.3,22.1,13.2c6.3,4.1,18.3,12.8,36.1,26.1l2.7,9.1
		c0.1,0.5,0,0.7-0.5,0.5c-12.2-3.7-24.7-3.8-36.1,2c-0.4,0.2-0.8,0.1-1.1-0.1c-12.1-8.8-25.8-15.2-40.4-18.7c-0.4,0-0.6-0.3-0.6-0.7
		c-1.5-12.2-4.4-24.1-8.8-35.6c-0.4-1-0.3-2.1,0.1-3C459.3,176.1,460.2,173.8,460.9,171.9z"/>
	<path class="st4" d="M140.2,171.4l2,7.7c0.2,0.8,0.1,1.7-0.3,2.4c-5.7,11.2-8.4,23.6-10.3,36.1c-0.1,0.4-0.4,0.8-0.8,0.9
		c-18.5,4.3-36.8,11.9-49.8,25.9c-10.2,11.1-12.6,26.5-11.6,41.2c-2.7,1.2-5.4,2.6-7.9,4.1c-4.4,3.2-8.9,6.3-13.4,9.4
		c-2.3,1.6-1.7,4.9-1.3,7.2c0.1,0.4-0.1,0.7-0.4,0.9c-0.7,0.5-1.1,0.5-1.2-0.1c-1.6-27.8,2.1-55.6,11-82c2.4,0.7,3.5-1.6,5.1-2.9
		c12.3-10.1,24.9-20.1,38.8-28.5c11-6.6,22-12.6,33.1-18C135.7,174.5,138,173,140.2,171.4z"/>
	<circle class="st2" cx="353.6" cy="200.5" r="5.9"/>
	
		<ellipse transform="matrix(0.3551 -0.9348 0.9348 0.3551 -45.3021 337.3199)" class="st2" cx="221.8" cy="201.5" rx="5.9" ry="5.7"/>
	<circle class="st2" cx="379.8" cy="223.5" r="7.1"/>
	<ellipse transform="matrix(0.9265 -0.3762 0.3762 0.9265 -66.1603 109.239)" class="st2" cx="246.6" cy="224" rx="7.1" ry="6.9"/>
	<path class="st2" d="M132.7,246.8c-10.6,2.2-19.3,6.8-26,13.9c-1.5-0.8-2.8-1.9-3.7-3.3c-0.9-1.1-1.1-2.7-0.6-4
		c0.5-1.4,1.4-2.7,2.6-3.7c7.1-6.2,16.7-9.9,26-12.6c0.3-0.1,0.5,0,0.6,0.4L132.7,246.8z"/>
	<path class="st2" d="M492.6,261.5c-6.8-7.6-16.1-12.1-25.8-15l0.8-8.8c0-0.3,0.2-0.4,0.5-0.3c8.5,2.8,15.8,5.7,23.4,11.3
		c2.5,1.8,4.7,4.1,6.3,6.8c0.2,0.3,0.2,0.8,0,1.1C496.8,258.9,494.9,260.6,492.6,261.5z"/>
	<path class="st5" d="M132.7,246.8c0.3,1.5,0.7,3.3,1.1,5.3c1.2,6.6,3.2,13.1,6,19.2c0.8,1.7,1.7,3.3,2.7,4.8
		c0.6,0.8,0.4,1.1-0.6,0.8c-7.8-2.2-15.4-4.8-22.9-7.8c-3.2-1.3-7.3-4.1-12.3-8.3C113.4,253.7,122.1,249,132.7,246.8z"/>
	<path class="st5" d="M466.9,246.5c9.7,3,19,7.4,25.8,15c-10.5,6.8-21.9,12-33.9,15.5c-1.3,0.4-1.6,0-0.9-1.2c0.9-1.5,1.7-3,2.3-4.6
		C463.4,263.3,465.7,255,466.9,246.5z"/>
	<path class="st6" d="M492.9,380.4c5.3,0.7,10.7-0.2,15.5-2.6c14.6-7.2,26.8-18.4,35.2-32.3c3.4-5.6,6.4-11.5,8.9-17.5
		c6.1-14.3,9.9-30.6,6.8-46c-1.8-9.1-7-17.2-14.6-22.6c-4.5-3.2-9.6-5.3-15.1-6.1c-2.2-0.2-4.5-0.3-6.7-0.3c-2.3,0-4.6-0.2-6.8-0.6
		c12.9-3.6,24.5-1.7,34.6,5.6c9.6,7,15.8,17.7,17,29.5c3.2,29.2-5.3,61.3-25.4,83.8c-16,17.9-41.6,28.4-65.7,31.1
		c-0.3,0-0.4-0.1-0.2-0.3C482.6,395.4,488.1,388.1,492.9,380.4z"/>
	<path class="st7" d="M516.2,252.5c2.2,0.4,4.5,0.6,6.8,0.6c2.2-0.1,4.5,0,6.7,0.3c5.5,0.8,10.6,2.9,15.1,6.1
		c7.5,5.4,12.7,13.5,14.6,22.6c3.1,15.4-0.7,31.6-6.8,46c-2.6,6-5.6,11.9-8.9,17.5c-8.3,13.6-20.5,25.3-35.2,32.3
		c-4.8,2.4-10.2,3.3-15.5,2.6c3-4.8,5.6-9.8,7.8-15c0.3-0.7,0.9-1.3,1.6-1.6c10.9-4.9,19.6-13.2,26.3-24.7
		c5.7-9.8,9.6-21.4,10.1-32.7c0.4-9.5-2.9-18.6-13.3-20.5c-7.9-1.5-12.7,2.4-17.9,8c-1.4,1.5-3.1,1.5-4.9,1.3c0.8-4.6,0.8-9.4,0-14
		c0.4-1,0.7-2,0.9-3c0.4-5.7,1.4-11.4,3.2-16.8c0.2-0.6,0.5-1.2,0.9-1.8c0.6-1,0.6-1.7,0-2.1L516.2,252.5z"/>
	<path class="st2" d="M507.6,257.4c0.6,0.4,0.6,1.2,0,2.1c-0.4,0.6-0.7,1.2-0.9,1.8c-1.8,5.4-2.8,11.1-3.2,16.8
		c-0.1,1-0.4,2.1-0.9,3c-4.2,2.6-8,5.1-11.6,7.4c-3.3,2.2-10.3,5.6-21,10.3c-7.6,2.8-15,5.4-22.4,8.1c-3.9,1.4-11.9,3.6-24,6.7
		c-30.3,7.7-61.3,12.2-92.5,13.5c-25.8,1.1-51.6,0.8-77.3-0.8c-7.3-0.4-14-1-20.2-1.7c-19.4-2.2-38.6-5.5-57.6-9.8
		c-5.7-1.3-11.5-2.8-17.6-4.6c-6.1-1.8-12.1-3.7-17.8-5.5c-11-3.6-21.6-8.1-31.9-13.4c-7.3-3.6-14.1-8.1-20.2-13.5
		c-0.4-7.3,1.5-14.5,5.4-20.7c0.4-0.7,0.6-0.6,0.5,0.2c-0.6,9.8,5.8,17.2,13.4,22.6c9,6.3,18.7,11.5,29,15.3
		c18.4,6.9,37.3,12.4,56.5,16.4c27.9,5.7,56.3,9,84.8,9.8c6.2,0.2,12.9,0.3,20,0.4c36.5,0.5,73-3.2,108.7-10.8
		c8.9-1.9,20.7-5.1,35.5-9.6c13.7-4.2,27-9.6,39.7-16.3c3.1-1.6,6.2-3.4,9.1-5.4c8.1-5.5,13.4-9.4,14.4-19.2
		C505.5,259.2,506.4,257.9,507.6,257.4z"/>
	<path class="st3" d="M182.7,275.4c1,0.2,2.1,0.4,3.1,0.5c1.1,0.1,2.2,0.3,3.3,0.6c21.7,6,43.9,10.1,66.4,12.2
		c37.5,3.7,75.3,2.7,112.6-3c5.3-0.8,14.5-2.8,27.9-5.8c4.6-1,8.8-2.4,13.2-3.7c0.4-0.1,0.7-0.1,1.1,0c2.6,0.6,4.4,0.5,5.5-0.4
		l16.6,5.8c1.5,0.5,1.5,1.1,0,1.7c-2.2,0.9-4.3,2-6.6,2.8c-25.2,8.1-51.3,13.3-77.7,15.7c-48.3,4.5-97.5,2.6-144.9-7.7
		c-10.2-2.2-20.3-5.1-30.2-8.5c-2.2-0.8-4.3-1.7-6.3-2.8c-0.3-0.1-0.4-0.5-0.2-0.7c0,0,0-0.1,0-0.1c0.1-0.1,0.1-0.2,0.3-0.2
		C171.9,279.2,177.2,277,182.7,275.4z"/>
	<path class="st7" d="M88.5,277.8c6.1,5.4,12.9,9.9,20.2,13.5c10.3,5.3,20.9,9.8,31.9,13.4c5.7,1.8,11.7,3.7,17.8,5.5
		c6.1,1.8,11.9,3.4,17.6,4.6c19,4.3,38.2,7.6,57.6,9.8c6.2,0.7,13,1.3,20.2,1.7c25.7,1.6,51.5,1.9,77.3,0.8
		c31.2-1.4,62.2-5.9,92.5-13.5c12.1-3.1,20.1-5.3,24-6.7c7.3-2.6,14.8-5.3,22.4-8.1c-0.5,4-1.6,7.9-3.1,11.6
		c-4.6,12.4-10.1,24.3-16.6,35.8c-10,17.3-20.3,32.1-31,44.3C399.1,413.7,374.5,433,346,445c-12.6,5.3-26.1,8.4-39.9,10.6
		c-8.4,1.4-16.8,1.3-25.3,1.6c-1,0.1-1.9,1-1.8,2c0,0.1,0,0.3,0.1,0.4c0.4,1.2-0.2,2.6-1.4,3.1c-26.3-1.7-52.1-8.3-76-19.4
		c-11.9-5.4-23.1-12.1-33.5-20c-10.7-8.1-21.6-17.3-30.6-27.8c-24.8-28.6-42.6-64.3-48.4-101.6C88.4,288.6,88.2,283.2,88.5,277.8z
		 M272,455.4c0.3,0.1,0.5,0.1,0.8,0.1c0.4,0,0.5-0.1,0.1-0.3c-0.6-0.3-1.2-0.5-1.9-0.7c-9.3-1.8-18.4-4.4-27.3-7.7
		c-7.2-2.7-15.4-6.1-24.6-10.3c-25.3-11.5-46-27.8-61.9-49c-16.1-21.4-24-47.5-29.4-73.8c-1.1-5.5-3.8-9.1-8-10.7
		c-7.6-3-15,0.4-13.7,9.8c0.8,5.8,2,11.4,3.7,17c6.5,21,16.5,40.7,29.6,58.4c2.9,4,6,7.7,9.1,11.3c4.1,4.6,7.4,8.1,10.1,10.6
		c21.4,20.1,48,33.8,76.8,39.7c8.7,1.9,17.5,3.3,26.4,4.3c3.1,0.3,6,1.2,9.2,1.1C271.4,455.3,271.7,455.3,272,455.4z M159.1,322.4
		c0.3-4.7-3.3-8.7-8-9l0,0c-4.8-0.4-9.1,2.9-9.5,7.4c-0.3,4.7,3.3,8.7,8,9l0,0C154.5,330.2,158.7,326.9,159.1,322.4z M256.6,374.7
		c-3.4,21.8,5.8,41.4,26.2,50.2c6.1,2.5,12.7,3.3,19.2,2.4c0.5-0.1,0.6-0.3,0.2-0.6c-17.6-16.3-9.8-37.7-3.6-56.9
		c2.1-6.1,2.8-12.5,2.2-18.9c-0.4-4.1-3.4-12.3-8.7-11.9c-6.2,0.3-12.2,2.5-17.2,6.2C264.6,352.7,258.5,362.5,256.6,374.7z M303,340
		c3.2,4.4,4.8,9.8,4.6,15.2c-0.4,11.4-5,22.7-7.8,33.9c-3.4,13.9-1.8,26.8,9.1,36.9c0.3,0.3,0.8,0.4,1.2,0.3
		c22.7-5,33.4-29.8,29.3-50.9c-3-15.3-11.7-26.5-26.1-33.7c-3.1-1.5-6.5-2.3-10-2.3c-0.2,0-0.4,0.2-0.4,0.4
		C303,339.9,303,339.9,303,340L303,340z M185,377.8c8.6-7.3,9.3-20.7,1.4-29.9c-7.9-9.2-21.1-10.7-29.7-3.4
		c-8.6,7.3-9.3,20.7-1.4,29.9l0,0C163.1,383.6,176.4,385.1,185,377.8z M210.2,387.5c1.5-4.7-1.1-9.7-5.8-11.2c0,0,0,0,0,0l0,0
		c-4.7-1.5-9.7,1-11.3,5.7l0,0c-1.5,4.7,1.1,9.7,5.8,11.2c0,0,0,0,0,0l0,0C203.6,394.7,208.6,392.2,210.2,387.5z"/>
	<path class="st6" d="M502.6,281.1c0.9,4.6,0.9,9.4,0,14c-1.5,18.6-6.3,36.8-14.2,53.7c-18.9,40.7-50.9,72.8-90.9,92.9
		c-36.2,18.1-78.6,24.2-119.9,21.1c1.2-0.5,1.8-1.9,1.4-3.1c-0.3-1,0.3-2,1.3-2.3c0,0,0,0,0,0c0.1,0,0.3-0.1,0.4-0.1
		c8.5-0.3,16.9-0.3,25.3-1.6c13.8-2.2,27.3-5.3,39.9-10.6c28.5-12,53.1-31.4,73.3-54.5c10.7-12.2,21-27,31-44.3
		c6.4-11.5,12-23.5,16.6-35.8c1.6-3.7,2.6-7.6,3.1-11.6c10.8-4.7,17.8-8.1,21-10.3C494.6,286.2,498.5,283.7,502.6,281.1z"/>
	<path class="st3" d="M69.5,285.6c1.1,17.9,5,35.4,11.5,52.1c10.2,25.8,24.6,49.6,42.6,70.7c5.4,6.2,11.2,12,17.4,17.4
		c10,9,20.7,17.4,31.8,25c0.3,0.2,0.4,0.5,0.4,0.8l-0.3,6c-2.2-1.4-4.4-2.8-6.5-4.2c-5.1-3.4-9.5-7.7-14.4-11.6
		c-4.1-3.3-8-6.8-11.7-10.6c-0.6-0.6-1.6-0.6-2.2,0l0,0c-1.6,1.8-3.4,3.5-5.3,5c-5,3.7-9.9,7.4-14.7,11.2c-2.8,2.2-5.7,4.4-8.8,6.6
		c-13.7-14.9-25.4-31.5-35-49.3c-4.6-8.5-8.7-17.3-12.4-26.2c-9.6-22.7-15.1-46.8-16.2-71.4c0.1,0.6,0.5,0.6,1.2,0.1
		c0.3-0.2,0.4-0.6,0.4-0.9c-0.4-2.3-0.9-5.6,1.3-7.2c4.5-3.1,8.9-6.2,13.4-9.4C63,288.8,65.6,287.4,69.5,285.6z"/>
	<path class="st2" d="M271.1,455.3c-3.2,0.1-6.1-0.8-9.2-1.1c-8.9-1-17.7-2.4-26.4-4.3c-28.8-5.9-55.3-19.6-76.8-39.7
		c-3.6-3.4-6.9-6.9-10.1-10.6c-3.2-3.6-6.3-7.4-9.1-11.3c-13-17.7-23.1-37.4-29.6-58.4c-1.7-5.5-3-11.2-3.7-17
		c-1.3-9.4,6.1-12.8,13.7-9.8c4.2,1.7,6.8,5.2,8,10.7c5.4,26.4,13.3,52.4,29.4,73.8c15.9,21.2,36.6,37.6,61.9,49
		c9.2,4.2,17.5,7.6,24.6,10.3c8.9,3.3,18,5.9,27.3,7.7c0.7,0.1,1.3,0.4,1.9,0.7c0.4,0.2,0.4,0.3-0.1,0.3c-0.3,0-0.5,0-0.8-0.1
		C271.8,455.4,271.5,455.3,271.1,455.3z"/>
	
		<ellipse transform="matrix(9.063228e-02 -0.9959 0.9959 9.063228e-02 -183.4792 442.2016)" class="st2" cx="150.4" cy="321.6" rx="8.3" ry="8.8"/>
	<path class="st2" d="M282.8,424.8c-20.4-8.8-29.7-28.4-26.2-50.2c1.9-12.1,8-22,18.3-29.5c5-3.7,11-5.9,17.2-6.2
		c5.3-0.4,8.3,7.8,8.7,11.9c0.6,6.4-0.1,12.8-2.2,18.9c-6.2,19.2-14,40.6,3.6,56.9c0.4,0.3,0.3,0.5-0.2,0.6
		C294.7,428,288.4,427.3,282.8,424.8z"/>
	<path class="st2" d="M307.6,355.2c0.3-5.4-1.4-10.8-4.6-15.2c-0.1-0.2-0.1-0.4,0.1-0.5s0.1-0.1,0.2-0.1c3.5,0,6.9,0.8,10,2.3
		c14.5,7.2,23.2,18.4,26.1,33.7c4.1,21.2-6.6,45.9-29.3,50.9c-0.4,0.1-0.9,0-1.2-0.3c-10.9-10.1-12.5-23-9.1-36.9
		C302.6,377.9,307.2,366.6,307.6,355.2z"/>
	<ellipse transform="matrix(0.76 -0.65 0.65 0.76 -193.3779 197.8899)" class="st2" cx="171.2" cy="360.8" rx="20.5" ry="21.8"/>
	<ellipse transform="matrix(0.309 -0.9511 0.9511 0.309 -226.5097 457.6296)" class="st2" cx="201.7" cy="384.7" rx="8.9" ry="9"/>
	<path class="st3" d="M491.3,452.5c-3.1-1.4-6.1-3.2-8.8-5.3c-7.1-5.5-14.5-11.2-22.2-17c-0.6-0.5-1.5-0.4-2,0.2
		c-1.3,1.5-2.7,2.8-4.2,4c-10.8,8.4-21.9,16.8-33.3,25l-0.3-7.9c0-0.4,0.2-0.7,0.5-0.9c10.5-7,20.3-13.9,30.6-22.1
		c1.6-1.2,3.1-2.6,4.5-4c0.5-0.5,1.1-0.8,1.8-0.8c11.5-0.1,22.9-1.6,34-4.4c10.2-2.5,20.1-5.7,29.8-9.7c0.4-0.2,0.5-0.1,0.3,0.3
		c-2.7,5.4-5.8,10.5-9.3,15.4C505.8,434.9,498.7,444,491.3,452.5z"/>
	<path class="st4" d="M491.3,452.5c-9.9,11-20.9,20.9-32.9,29.5c-24.9,18.3-53,31.7-82.8,39.6c-37.9,10.1-77.4,12.6-116.2,7.2
		c-16.5-2.2-32.9-5.8-48.8-10.7c-29.8-9.5-57.5-24.6-81.5-44.7c-7-6.1-13.8-12.6-20.1-19.4c3-2.2,5.9-4.4,8.8-6.6
		c4.9-3.8,9.8-7.5,14.7-11.2c1.9-1.5,3.7-3.2,5.3-5c0.6-0.6,1.6-0.7,2.2-0.1l0,0c3.9,3.9,7.8,7.4,11.7,10.6
		c4.9,3.9,9.3,8.2,14.4,11.6c2.2,1.4,4.3,2.8,6.5,4.2c0.8,4.1,2.8,7.9,5.7,11c0.1,0.2,0.1,0.4,0,0.6c-0.1,0-0.1,0.1-0.2,0.1
		c-2.6,0.5-5,1.4-7.3,2.7c-5.5,3.4-2,9.1,2.3,11.4c11,6,24,9.5,36.8,12.4c12.4,2.8,24.2,5,35.2,6.5c50.9,6.9,102.8,3.8,152.5-9.2
		c6.6-1.7,13-4,19.3-6.6c2.7-1.1,5.3-2.6,7.6-4.4c3.9-3.1,3.2-7.4-0.8-9.9c-2.7-1.7-5.8-2.7-9-3c-0.5,0-0.5-0.2-0.2-0.6
		c2.8-2.5,4.8-5.7,6.1-9.2c11.4-8.2,22.5-16.6,33.3-25c1.5-1.2,2.9-2.5,4.2-4c0.5-0.6,1.4-0.7,2-0.2c7.7,5.8,15,11.5,22.2,17
		C485.1,449.2,488.1,451,491.3,452.5z"/>
	<path class="st7" d="M198.7,463.9c6.6,2.6,13.3,5.4,19.6,7.2c38.4,11,78.5,13.1,118.6,8.1c20.2-2.6,40-7.7,59-15
		c0.6-0.2,0.9,0,0.9,0.6v6.1c0,0.5-0.3,1-0.8,1.2c-2.6,1-4.9,1.8-6.9,2.4c-19.2,5.6-39,9.3-58.9,11.1c-11.8,1-25.7,1.3-41.9,1.1
		c-30.4-0.4-60.5-5.5-89.2-15.3c-0.4-0.2-0.7-0.5-0.8-1l-0.5-5.9C197.8,463.8,198.1,463.6,198.7,463.9z"/>
	<path class="st3" d="M423.1,83.1c-12.3-7.2-25.6-13.9-39.2-18.6c-48.4-16.7-98-18.5-148.8-5.5c-19.8,5.1-38.7,13-56.4,23.3
		c-0.8,0.5-0.7,0.8,0.2,0.9c18.6,2.4,36.8,7.8,53.7,15.9c0.4,0.2,1,0.2,1.4,0c9.5-4.1,19.5-7.1,29.8-8.9c14.5-2.6,29.3-3.5,44.1-2.7
		c3.5,0.2,6.9,0.5,10.2,0.8c6.4,0.5,12.7,1.3,19,2.4c0,0,0.1-0.1,0.1-0.1v0.1c2.6,0.5,5.2,1,7.8,1.6c9.5,2.1,18.8,4.9,27.9,8.5
		c0.1,0,0.2,0.2,0.3,0.1c0.1-0.1,0.2-0.1,0.3-0.2c3-1.9,5.6-3.5,7.7-4.6c2.6-1.5,5.2-2.8,8-3.9c0,0,0,0,0.1,0v-0.2
		c10.8-4.2,22.1-6.9,33.6-8.1C423.7,83.7,423.8,83.5,423.1,83.1z"/>
</g>
</svg>
