<svg id="Layer_1" data-name="Layer 1" xmlns="http://www.w3.org/2000/svg" viewBox="0 0 343.08 453.33"><defs><style>.cls-1{fill:#664439;}</style></defs><title>coffee</title><path class="cls-1" d="M178.66,283.44c-2.77,14.13-9.29,28.39-20.13,38.41q-5.7,5.26-11.76,10.55a63.15,63.15,0,0,0-16.57,22.47c-.3.7-.73.79-1.3.28-26.44-23.7-27.63-67.39-20.71-99.25,7.75-35.68,25.42-70.52,53.8-93.42,17.67-14.26,43-24.07,64.82-12.79a.44.44,0,0,1,.23.63,57.74,57.74,0,0,1-14.21,20.34q-4.85,4.47-10.3,9.07c-12.51,10.56-19.81,24.12-24.16,40.19-3.82,14.07-2.85,26.08,0,39.83A59.18,59.18,0,0,1,178.66,283.44Z" transform="translate(-104.6 -29.33)"/><path class="cls-1" d="M259.69,235c-3.35,38.6-20,78.75-48.08,106.4-19,18.66-46.75,33.76-73.27,20.52a.51.51,0,0,1-.25-.66A61.92,61.92,0,0,1,156,337.62q5.27-4.35,10.05-8.84c11.84-11.1,18.83-26.7,22.06-42.56a62.45,62.45,0,0,0,.7-22.46q-1.27-8-2.78-17.18c-2.32-14.05,2.45-30.11,9.4-42.62,5.14-9.28,12.88-16,21-22.89a67.2,67.2,0,0,0,18.4-24c.44-1,1-1.11,1.8-.35a70.7,70.7,0,0,1,18.77,31.48A127,127,0,0,1,259.69,235Z" transform="translate(-104.6 -29.33)"/><path class="cls-1" d="M344.53,329.83c-7.65,12.42-12.84,25.29-12.84,39.73,0,11.64.39,22.46-3.78,33.5-5.11,13.51-14.3,27.13-26.68,34.49Q294,441.81,287,446.32a66,66,0,0,0-19.69,19.09.4.4,0,0,1-.55.09l-.08-.07c-8.22-10.23-12.27-23.05-13.77-36.2-5.35-46.82,20.24-97.67,52.88-128.59C321.1,286.1,340.63,274,361.3,271.06c13.21-1.86,26.75.61,37.23,8.77a.54.54,0,0,1,.14.81,57.27,57.27,0,0,1-17.19,17.42q-5.82,3.76-12.51,7.69A69.79,69.79,0,0,0,344.53,329.83Z" transform="translate(-104.6 -29.33)"/><path class="cls-1" d="M405,400.91c-13.77,28.48-34.51,54.15-61.41,69.77-20.63,12-48,18.33-68.74,2.79a.65.65,0,0,1-.16-.88,61.57,61.57,0,0,1,20.73-19.67q5.7-3.36,10.73-6.48c12.6-7.78,21.43-18.92,28.33-33.18a67,67,0,0,0,7-26.31c.38-8.5-.1-17.48,1.13-25.73,2.44-16.41,14.06-35.71,28.78-45q6.25-4,12.73-7.75a68.45,68.45,0,0,0,22-20.62.49.49,0,0,1,.68-.14.34.34,0,0,1,.12.12A67.54,67.54,0,0,1,420,319.29C424,347,417.33,375.36,405,400.91Z" transform="translate(-104.6 -29.33)"/><path class="cls-1" d="M387.84,243.92c-29.26-4.16-54.75-26.55-71.49-49.62a180.36,180.36,0,0,1-31.23-70.1c-6.58-31.87-3.56-78.14,32.42-92.09a.84.84,0,0,1,1.09.46C323,43,324.22,52.87,323.56,64.1c-.49,8.54-.62,17.27,1.37,25.65,3.83,16.19,13.65,34,27,44.22q6.84,5.21,15.1,10.59c11.34,7.37,19,18,24.36,30.83a59.16,59.16,0,0,1,5,23.05q0,7.35-.4,16a70.11,70.11,0,0,0,5.15,29.13c.14.34,0,.53-.34.58A49.54,49.54,0,0,1,387.84,243.92Z" transform="translate(-104.6 -29.33)"/><path class="cls-1" d="M445.73,197c-3.62,18.88-14.23,38.24-33.37,44.67a.44.44,0,0,1-.6-.27,57.81,57.81,0,0,1-5.19-25.7q.3-9,.32-17.68c0-13.81-4.91-27.19-12.05-39.11A68,68,0,0,0,376,138.09q-6.71-4.8-14.23-9.8c-10.67-7.12-18.07-18.1-23.1-30.18a58.85,58.85,0,0,1-4.88-23.89q.19-8.62.42-16.85a68.16,68.16,0,0,0-5.11-27.08c-.18-.44,0-.68.43-.72,26.52-2.5,53.72,15.49,71.11,34.05A177.71,177.71,0,0,1,440.21,131C447.07,152,449.89,175.27,445.73,197Z" transform="translate(-104.6 -29.33)"/></svg>