<svg id="Capa_1" data-name="Capa 1" xmlns="http://www.w3.org/2000/svg" viewBox="0 0 348.02 438.43"><defs><style>.cls-1{fill:#664439;}</style></defs><title>Coffee_Shop_Logo</title><path class="cls-1" d="M315.32,193.92a38.51,38.51,0,0,1-3.43-6q-5.92-12.71-9.71-22.7c-2.33-6.13-3.52-13.3-4.54-19.93q-1.27-8.28,2.24-18.64a45.45,45.45,0,0,1,10.17-17.25A75.55,75.55,0,0,1,332.37,93c9.94-4.64,19.89-9.89,26.32-18.1q4.65-5.92,5.9-15.84a88.22,88.22,0,0,0-2.68-34.26c-.32-1.19.1-1.58,1.27-1.18.25.08.61.46,1.08,1.13,9.94,14,18,32.14,16.61,49.74s-12.6,30.9-27.72,39.06q-6.79,3.67-13.63,7.26c-16,8.41-23.44,22.34-24.51,39.93a94,94,0,0,0,.58,17.92q1,7.48,2.22,15c.24,1.45,1.32,2,2.68,2.07a215.6,215.6,0,0,1,44.32,6.74,14,14,0,0,1,6.75,3.88c.34.36.27.5-.22.44-10.18-1.21-20.68-3-30.84-3.28q-14.79-.42-26.81,0A228.16,228.16,0,0,0,268.62,210a143.12,143.12,0,0,0-29.41,11,80.33,80.33,0,0,0-24.05,18.42c-7,7.76-10.72,15.5-11.85,25.9-1.73,15.86,10.75,29.74,24.1,36.66,14.71,7.62,31,11.5,47.85,13.62a231.07,231.07,0,0,0,29.42,1.71q33.06-.06,59.69-10.41a141.13,141.13,0,0,0,23.76-12.35c5.67-3.57,10.15-8,14.84-12.61q3.25-3.18,6.69-.61c2.29,1.72,4.2,4.11,2.68,7.16-3.24,6.53-9.68,12.64-15.56,16.93a119.63,119.63,0,0,1-40.41,19.1q-25.14,6.66-46.52,6.64-10,0-20-.29-13.59-.37-20.52-1.28-13.6-1.75-25.58-4.48A116.62,116.62,0,0,1,228.12,320q-13.8-5.34-21.92-11.36a78.18,78.18,0,0,1-11.57-11.38,43.8,43.8,0,0,1-10.5-25.69c-.94-11.26,3.93-23.69,10.39-32.58q17.14-23.55,45.83-33.41c14.31-4.91,26.19-8.49,40.55-9.92a257,257,0,0,1,27.65-1.17c2.18,0,4.27.1,6.27.26C315.59,194.85,315.76,194.56,315.32,193.92Z" transform="translate(-135.53 -23.46)"/><path class="cls-1" d="M253,167.68c-2.07,9.39-.65,18.79.64,28.31q.28,2.16-1.14.51a11.61,11.61,0,0,1-1.63-2.45q-3.18-6.41-6.74-15.48c-7.35-18.69-1.3-34.2,15.64-43.28,7.14-3.83,14.27-7.78,19.45-13.93,3.94-4.69,3.94-12.21,3.24-18q-.74-6-1.68-11.9a.83.83,0,0,1,.23-.75.74.74,0,0,1,1.05,0l0,0a33.56,33.56,0,0,1,5.95,9.94c2.88,7.38,5.23,14.21,4.75,22a25,25,0,0,1-8.61,17.85q-2.62,2.34-9.75,5.7C265.5,150.55,255.33,157.25,253,167.68Z" transform="translate(-135.53 -23.46)"/><path class="cls-1" d="M361.13,234.91q-15.63-6.25-35.81-7.84a108.57,108.57,0,0,0-19.87.23c-13.1,1.39-24.64,7.4-36.11,14.06a5.7,5.7,0,0,1-3.15.8,1.06,1.06,0,0,1-1-1.11s0-.07,0-.11c.93-6.6,7.94-13.27,13.29-15.67a78,78,0,0,1,29.19-6.69,181.41,181.41,0,0,1,39,2.75,98.74,98.74,0,0,1,23.05,7.22q16.72,7.59,22.66,22.46a12.48,12.48,0,0,1,.85,4.55c.08,13.05-6,22.13-16.59,29.23A69.29,69.29,0,0,1,347.09,296,113.2,113.2,0,0,1,294.2,291a49.86,49.86,0,0,1-12.2-6.18c-.65-.45-.6-.59.17-.41,1.45.35,2.92.71,4.4,1.09a179.5,179.5,0,0,0,23.1,4.35c19.18,2.42,39.66.78,56.36-8.14,9.62-5.13,17.81-14.49,16.4-25.89C381.2,245.84,370.27,238.57,361.13,234.91Z" transform="translate(-135.53 -23.46)"/><path class="cls-1" d="M436.72,357.51A42.72,42.72,0,0,0,426,359.08c-.51.14-.63,0-.37-.48a1.41,1.41,0,0,1,.78-.66,95.46,95.46,0,0,0,10.83-4.46c12.62-6.21,23.21-19.66,24.8-33.75,2.16-19.05-21.69-22.8-34.66-27.14a25.57,25.57,0,0,1-5.55-2.62,2,2,0,0,1-.65-2.81,2.79,2.79,0,0,1,.3-.38c7-6.85,16.8-7.81,25.67-3.78,8.68,3.93,16.84,9.31,21.16,17.64q7.55,14.52,2.69,29.24-5.08,15.42-18.75,21.73C447.3,353.86,442.07,357.39,436.72,357.51Z" transform="translate(-135.53 -23.46)"/><path class="cls-1" d="M295.63,401.62c27.41,5.18,56.95-5.9,74-28.12a191.57,191.57,0,0,0,16.32-25q6.72-12.37,12.47-22.39a47.88,47.88,0,0,1,6.54-8.87,10.17,10.17,0,0,1,7.86-3.41,2.19,2.19,0,0,1,2.14,2c.83,10.12-.13,20.87-3.5,30.32A149.41,149.41,0,0,1,402.25,367a101.67,101.67,0,0,1-34.42,37.28,77.12,77.12,0,0,1-17.63,8.39,107,107,0,0,1-53.94,4q-21.67-3.87-37.23-13c-26.82-15.72-49.34-40.11-55.19-71.1a112.18,112.18,0,0,1-2-22.69,4.31,4.31,0,0,1,.41-1.8c.33-.7.73-.75,1.21-.14a8.9,8.9,0,0,1,1.65,3.4,138,138,0,0,0,17.58,40.82A110.43,110.43,0,0,0,295.63,401.62Z" transform="translate(-135.53 -23.46)"/><path class="cls-1" d="M412.25,432.12a161.34,161.34,0,0,0,33-19.21,94.8,94.8,0,0,0,21.15-21.54Q478.3,374.66,478,355.19q-.11-6.06-.47-11.63-.4-6.24,1.61-.33a99.47,99.47,0,0,1,3.47,13.7c2.05,11.05.85,21.39-4,31.08q-9.53,19.17-28.81,33.4a175.49,175.49,0,0,1-41.18,22.37A255,255,0,0,1,346,459.39a339.15,339.15,0,0,1-95-1.79c-29.71-4.93-58-14.74-82.2-31.92A91.15,91.15,0,0,1,154,412.31c-10.07-11.16-17.05-23.68-18.32-38.39-1.84-21.11,13.52-41.29,28.86-53.83a.33.33,0,0,1,.5,0l.21.21s0,.07,0,.09a76.94,76.94,0,0,0-16.3,30.3,44.82,44.82,0,0,0,2.74,30.64A88.56,88.56,0,0,0,184,419.5a164,164,0,0,0,33.86,17.63A238.61,238.61,0,0,0,264,449.51a280.67,280.67,0,0,0,86.89.15A256.79,256.79,0,0,0,412.25,432.12Z" transform="translate(-135.53 -23.46)"/><path class="cls-1" d="M161.42,364.83a77.43,77.43,0,0,1,8.17.64l10.63,2.08c.43.09.56.34.38.74-1.36,3.12-2.6,5.27-6.22,6.23-5,1.34-11.36,1.44-14.69-2.87a14.55,14.55,0,0,1-3.07-7c-.42-3.24,2.38-6.67,5.38-7.79a28.3,28.3,0,0,1,13.94-1.69,33.66,33.66,0,0,1,13.65,5.07,7.45,7.45,0,0,0,3.11,1.2,9,9,0,0,1,5.83,3.78,2.61,2.61,0,0,0,.86.72l1.14.61a.9.9,0,0,1,.51.87c-.08,4.71-4.22,9.93-7.19,13.54-2.41,2.93-9.42,9-13.36,7.35a1.69,1.69,0,0,1-.9-2.21l0-.05a11.26,11.26,0,0,1,2-3.05q5-5.42,10.9-11.75c1.73-1.84,3.88-2.78,5.59-4.57.34-.36.26-.51-.23-.45a9.07,9.07,0,0,0-5.76,3.24q-7.25,8.31-14.69,16.28a1.1,1.1,0,0,1-1.78-.24,5.29,5.29,0,0,1,0-5A88.59,88.59,0,0,1,183,367.73a16.89,16.89,0,0,1,6.36-4.87.06.06,0,0,0,0-.09l-.13-.29a.25.25,0,0,0-.37-.12l-6.84,3.5a1.28,1.28,0,0,1-.94.11q-5.42-1.28-11.43-2.08a18.91,18.91,0,0,0-8.26.62C160.88,364.67,160.89,364.78,161.42,364.83Z" transform="translate(-135.53 -23.46)"/><path class="cls-1" d="M219,392.22a104.94,104.94,0,0,1-3.63-13.12c-.2-.9.16-1.4,1.09-1.48,2.7-.23,5.37,3.24,6.51,5.34,4.11,7.56,7.47,14.68,4.06,23.08a.91.91,0,0,1-1.18.49,1,1,0,0,1-.43-.39A86.57,86.57,0,0,1,219,392.22Z" transform="translate(-135.53 -23.46)"/><path class="cls-1" d="M221.74,408.81c-6.67-1.87-9.42-7.81-12-13.62-1.44-3.27-2.8-9.7-.81-13.22a12.09,12.09,0,0,1,3.09-3.66.44.44,0,0,1,.6.08.46.46,0,0,1,.08.19,24.89,24.89,0,0,0,1.47,5.89q3.86,9.61,7.37,19.69c.41,1.2.83,2.36,1.24,3.48a.9.9,0,0,1-.52,1.15A.86.86,0,0,1,221.74,408.81Z" transform="translate(-135.53 -23.46)"/><path class="cls-1" d="M202,401.05a55.26,55.26,0,0,0-3.32,6.31,55.63,55.63,0,0,1-4.68,7.47,1,1,0,0,1-1.33.27h0a5.12,5.12,0,0,1-2.09-4.61q.1-14.64,11.55-24.61a12.24,12.24,0,0,1,3-1.53,1,1,0,0,1,1.38.48l0,.1c1.55,4.25.95,7.63-1.73,11C203.49,397.48,203,399.34,202,401.05Z" transform="translate(-135.53 -23.46)"/><path class="cls-1" d="M196.66,414.76l10.54-18.85c.56-1,1.15-1,1.78-.06a31.94,31.94,0,0,1,3.47,7.2,1.7,1.7,0,0,1,0,.92,13,13,0,0,1-1.51,4.18c-1.8,2.64-10.23,12-13.88,8.94A1.84,1.84,0,0,1,196.66,414.76Z" transform="translate(-135.53 -23.46)"/></svg>