<svg id="Layer_1" data-name="Layer 1" xmlns="http://www.w3.org/2000/svg" viewBox="0 0 131.47 181.61"><defs><style>.cls-1{fill:#664439;}</style></defs><title>cup</title><path class="cls-1" d="M71.83,43.81a32.81,32.81,0,0,1-6.23,8.74Q60.25,58,55,63.62A23.84,23.84,0,0,0,49.58,73a38.15,38.15,0,0,0-1.79,10.07c0,1-.27,1.09-.73.16a24.33,24.33,0,0,1-1.94-17.61c2.11-7.55,8.25-13.73,13.57-19.49,6.56-7.12,9.59-14.62,7.76-24.69-.53-2.86-1.12-5.68-1.79-8.46-.16-.65,0-.75.5-.3C73.86,20.73,77,33.16,71.83,43.81Z" transform="translate(-11.81 -12.42)"/><path class="cls-1" d="M71.68,76.6c-7,7.87-10.19,17.71-5.05,27.56.41.8.2,1-.64.71C56.05,101,53.13,89.81,55.65,80.26,58.35,70,66.25,63.42,74,56.43a21.69,21.69,0,0,0,7.49-17.6c0-.53.18-.63.59-.3a6.78,6.78,0,0,1,1.71,2C92.6,55.56,80.79,66.43,71.68,76.6Z" transform="translate(-11.81 -12.42)"/><path class="cls-1" d="M79.42,85.09c4.9-4.84,7.2-9.43,4.88-16.61a2.25,2.25,0,0,1-.08-1q.12-.7.6-.18Q90.51,73.59,88,81c-2.2,6.52-10.41,9.49-11.58,16.5-.17,1-.36,2-.55,3s-.42.89-.74.06C72.74,94.37,75.08,89.38,79.42,85.09Z" transform="translate(-11.81 -12.42)"/><path class="cls-1" d="M125.23,119.53a1,1,0,0,0,.84,1,79,79,0,0,1,9.09,2.18c5.37,1.66,8.31,6.36,8.11,11.89a51.64,51.64,0,0,1-3.09,15.86c-4.52,12.33-14.92,23.39-28.89,22.91a1.2,1.2,0,0,0-1.07.57c-4.54,7.36-9.74,13.83-16.48,19a3.81,3.81,0,0,1-2.26,1q-22.87,0-46,0a2.14,2.14,0,0,1-1.33-.45C26,179.78,16.39,156.42,13.21,134.14a153.13,153.13,0,0,1-1.34-25.37.36.36,0,0,1,.4-.39h112.3a.69.69,0,0,1,.69.69h0Zm-10.11,44.9c-.41.93-.79,1.8-1.13,2.61a.38.38,0,0,0,.2.51.36.36,0,0,0,.23,0c11.88-2.21,18.51-13.5,20.12-24.72,1.17-8.22-1.73-10.68-9.48-11.66a.79.79,0,0,0-.87.68A115.71,115.71,0,0,1,115.12,164.43Z" transform="translate(-11.81 -12.42)"/></svg>